solid suportFilament
facet normal -1.7677354484290967e-13 -0.7933533402912312 0.6087614290087261
  outer loop
    vertex -53.009054746936336 65.78521634452629 10.633436052610675
    vertex -48.00905474693652 66.18251290102101 11.15120300557849
    vertex -53.00905474693649 66.18251290102101 11.151203005577042
  endloop
endfacet
facet normal -1.7677354484290967e-13 -0.7933533402912312 0.6087614290087261
  outer loop
    vertex -48.00905474693652 66.18251290102101 11.15120300557849
    vertex -53.009054746936336 65.78521634452629 10.633436052610675
    vertex -48.0090547469363 65.78521634452629 10.63343605261212
  endloop
endfacet
facet normal -1.1112449585050032e-13 -0.9238795325112961 0.38268343236506736
  outer loop
    vertex -53.00905474693649 66.18251290102101 11.151203005577042
    vertex -48.009054746936705 66.43226395728257 11.754155392822186
    vertex -53.0090547469367 66.43226395728257 11.75415539282074
  endloop
endfacet
facet normal -1.1112449585050032e-13 -0.9238795325112961 0.38268343236506736
  outer loop
    vertex -48.009054746936705 66.43226395728257 11.754155392822186
    vertex -53.00905474693649 66.18251290102101 11.151203005577042
    vertex -48.00905474693652 66.18251290102101 11.15120300557849
  endloop
endfacet
facet normal 1.1112449585050009e-13 -0.9238795325112964 -0.3826834323650666
  outer loop
    vertex -53.00905474693722 66.18251290102101 13.651203005577038
    vertex -48.00905474693709 66.43226395728257 13.04825061833479
    vertex -48.009054746937224 66.18251290102101 13.651203005578493
  endloop
endfacet
facet normal 1.1112449585050009e-13 -0.9238795325112964 -0.3826834323650666
  outer loop
    vertex -48.00905474693709 66.43226395728257 13.04825061833479
    vertex -53.00905474693722 66.18251290102101 13.651203005577038
    vertex -53.0090547469371 66.43226395728257 13.048250618333341
  endloop
endfacet
facet normal -3.790249610780712e-14 -0.9914448613738099 0.13052619222005613
  outer loop
    vertex -53.0090547469367 66.43226395728257 11.75415539282074
    vertex -48.00905474693686 66.51744939155991 12.401203005578488
    vertex -53.009054746936854 66.51744939155991 12.401203005577042
  endloop
endfacet
facet normal -3.790249610780712e-14 -0.9914448613738099 0.13052619222005613
  outer loop
    vertex -48.00905474693686 66.51744939155991 12.401203005578488
    vertex -53.0090547469367 66.43226395728257 11.75415539282074
    vertex -48.009054746936705 66.43226395728257 11.754155392822186
  endloop
endfacet
facet normal 3.790249610780712e-14 -0.9914448613738099 -0.13052619222005613
  outer loop
    vertex -53.009054746936854 66.51744939155991 12.401203005577042
    vertex -48.00905474693709 66.43226395728257 13.04825061833479
    vertex -53.0090547469371 66.43226395728257 13.048250618333341
  endloop
endfacet
facet normal 3.790249610780712e-14 -0.9914448613738099 -0.13052619222005613
  outer loop
    vertex -48.00905474693709 66.43226395728257 13.04825061833479
    vertex -53.009054746936854 66.51744939155991 12.401203005577042
    vertex -48.00905474693686 66.51744939155991 12.401203005578488
  endloop
endfacet
facet normal 2.3037576888635985e-13 -0.6087614290087238 -0.793353340291233
  outer loop
    vertex -53.00905474693749 65.26744939155992 14.566266515038132
    vertex -48.0090547469374 65.78521634452629 14.168969958544857
    vertex -48.009054746937515 65.26744939155992 14.566266515039585
  endloop
endfacet
facet normal 2.3037576888635985e-13 -0.6087614290087238 -0.793353340291233
  outer loop
    vertex -48.0090547469374 65.78521634452629 14.168969958544857
    vertex -53.00905474693749 65.26744939155992 14.566266515038132
    vertex -53.009054746937394 65.78521634452629 14.168969958543405
  endloop
endfacet
facet normal 2.87898040693415e-13 0.13052619222004963 -0.9914448613738107
  outer loop
    vertex -53.00905474693755 63.3704017788036 14.816017571299707
    vertex -48.009054746937586 64.01744939155991 14.901203005578491
    vertex -48.009054746937565 63.3704017788036 14.816017571301158
  endloop
endfacet
facet normal 2.87898040693415e-13 0.13052619222004963 -0.9914448613738107
  outer loop
    vertex -48.009054746937586 64.01744939155991 14.901203005578491
    vertex -53.00905474693755 63.3704017788036 14.816017571299707
    vertex -53.00905474693757 64.01744939155991 14.901203005577036
  endloop
endfacet
facet normal -1.7677354484290336e-13 0.7933533402912477 0.6087614290087043
  outer loop
    vertex -48.00905474693652 61.85238588209883 11.151203005578488
    vertex -53.009054746936336 62.24968243859354 10.633436052610673
    vertex -53.00905474693649 61.85238588209883 11.151203005577042
  endloop
endfacet
facet normal -1.7677354484290336e-13 0.7933533402912477 0.6087614290087043
  outer loop
    vertex -53.009054746936336 62.24968243859354 10.633436052610673
    vertex -48.00905474693652 61.85238588209883 11.151203005578488
    vertex -48.0090547469363 62.24968243859354 10.633436052612119
  endloop
endfacet
facet normal -2.6827826499416775e-13 0.382683432365078 0.9238795325112917
  outer loop
    vertex -48.00905474693619 63.37040177880362 9.98638843985582
    vertex -53.00905474693622 62.7674493915599 10.236139496115946
    vertex -48.00905474693623 62.7674493915599 10.236139496117394
  endloop
endfacet
facet normal -2.6827826499416775e-13 0.382683432365078 0.9238795325112917
  outer loop
    vertex -53.00905474693622 62.7674493915599 10.236139496115946
    vertex -48.00905474693619 63.37040177880362 9.98638843985582
    vertex -53.00905474693615 63.37040177880362 9.986388439854373
  endloop
endfacet
facet normal -2.682782649941663e-13 -0.3826834323650902 0.9238795325112866
  outer loop
    vertex -53.00905474693622 65.26744939155992 10.236139496115946
    vertex -48.00905474693619 64.66449700431622 9.98638843985582
    vertex -48.00905474693623 65.26744939155992 10.236139496117394
  endloop
endfacet
facet normal -2.682782649941663e-13 -0.3826834323650902 0.9238795325112866
  outer loop
    vertex -48.00905474693619 64.66449700431622 9.98638843985582
    vertex -53.00905474693622 65.26744939155992 10.236139496115946
    vertex -53.00905474693615 64.66449700431622 9.986388439854373
  endloop
endfacet
facet normal 3.790249610780712e-14 0.9914448613738099 -0.13052619222005613
  outer loop
    vertex -48.00905474693709 61.60263482583725 13.04825061833479
    vertex -53.009054746936854 61.517449391559914 12.401203005577042
    vertex -53.0090547469371 61.60263482583725 13.048250618333341
  endloop
endfacet
facet normal 3.790249610780712e-14 0.9914448613738099 -0.13052619222005613
  outer loop
    vertex -53.009054746936854 61.517449391559914 12.401203005577042
    vertex -48.00905474693709 61.60263482583725 13.04825061833479
    vertex -48.00905474693686 61.517449391559914 12.401203005578488
  endloop
endfacet
facet normal 2.3037576888635985e-13 0.6087614290087238 -0.793353340291233
  outer loop
    vertex -53.009054746937394 62.24968243859354 14.168969958543405
    vertex -48.009054746937515 62.7674493915599 14.566266515039585
    vertex -48.0090547469374 62.24968243859354 14.168969958544857
  endloop
endfacet
facet normal 2.3037576888635985e-13 0.6087614290087238 -0.793353340291233
  outer loop
    vertex -48.009054746937515 62.7674493915599 14.566266515039585
    vertex -53.009054746937394 62.24968243859354 14.168969958543405
    vertex -53.00905474693749 62.7674493915599 14.566266515038132
  endloop
endfacet
facet normal -2.3037576888635985e-13 -0.6087614290087238 0.793353340291233
  outer loop
    vertex -53.009054746936336 65.78521634452629 10.633436052610675
    vertex -48.00905474693623 65.26744939155992 10.236139496117394
    vertex -48.0090547469363 65.78521634452629 10.63343605261212
  endloop
endfacet
facet normal -2.3037576888635985e-13 -0.6087614290087238 0.793353340291233
  outer loop
    vertex -48.00905474693623 65.26744939155992 10.236139496117394
    vertex -53.009054746936336 65.78521634452629 10.633436052610675
    vertex -53.00905474693622 65.26744939155992 10.236139496115946
  endloop
endfacet
facet normal 1.767735448429094e-13 0.793353340291232 -0.6087614290087251
  outer loop
    vertex -48.009054746937224 61.8523858820988 13.651203005578488
    vertex -53.009054746937394 62.24968243859354 14.168969958543405
    vertex -48.0090547469374 62.24968243859354 14.168969958544857
  endloop
endfacet
facet normal 1.767735448429094e-13 0.793353340291232 -0.6087614290087251
  outer loop
    vertex -53.009054746937394 62.24968243859354 14.168969958543405
    vertex -48.009054746937224 61.8523858820988 13.651203005578488
    vertex -53.00905474693722 61.8523858820988 13.651203005577035
  endloop
endfacet
facet normal 1.7677354484290998e-13 -0.7933533402912302 -0.6087614290087271
  outer loop
    vertex -53.009054746937394 65.78521634452629 14.168969958543405
    vertex -48.009054746937224 66.18251290102101 13.651203005578493
    vertex -48.0090547469374 65.78521634452629 14.168969958544857
  endloop
endfacet
facet normal 1.7677354484290998e-13 -0.7933533402912302 -0.6087614290087271
  outer loop
    vertex -48.009054746937224 66.18251290102101 13.651203005578493
    vertex -53.009054746937394 65.78521634452629 14.168969958543405
    vertex -53.00905474693722 66.18251290102101 13.651203005577038
  endloop
endfacet
facet normal 2.87898040693415e-13 -0.13052619222004963 -0.9914448613738107
  outer loop
    vertex -53.00905474693757 64.01744939155991 14.901203005577036
    vertex -48.009054746937565 64.66449700431622 14.816017571301158
    vertex -48.009054746937586 64.01744939155991 14.901203005578491
  endloop
endfacet
facet normal 2.87898040693415e-13 -0.13052619222004963 -0.9914448613738107
  outer loop
    vertex -48.009054746937565 64.66449700431622 14.816017571301158
    vertex -53.00905474693757 64.01744939155991 14.901203005577036
    vertex -53.00905474693755 64.66449700431622 14.816017571299707
  endloop
endfacet
facet normal -1.1112449585050889e-13 0.923879532511284 0.3826834323650969
  outer loop
    vertex -48.009054746936705 61.60263482583725 11.754155392822186
    vertex -53.00905474693649 61.85238588209883 11.151203005577042
    vertex -53.0090547469367 61.60263482583725 11.754155392820739
  endloop
endfacet
facet normal -1.1112449585050889e-13 0.923879532511284 0.3826834323650969
  outer loop
    vertex -53.00905474693649 61.85238588209883 11.151203005577042
    vertex -48.009054746936705 61.60263482583725 11.754155392822186
    vertex -48.00905474693652 61.85238588209883 11.151203005578488
  endloop
endfacet
facet normal -2.8789804069341486e-13 0.1305261922200541 0.9914448613738102
  outer loop
    vertex -53.00905474693615 64.01744939155991 9.901203005577043
    vertex -48.00905474693619 63.37040177880362 9.98638843985582
    vertex -48.009054746936165 64.01744939155991 9.90120300557849
  endloop
endfacet
facet normal -2.8789804069341486e-13 0.1305261922200541 0.9914448613738102
  outer loop
    vertex -48.00905474693619 63.37040177880362 9.98638843985582
    vertex -53.00905474693615 64.01744939155991 9.901203005577043
    vertex -53.00905474693615 63.37040177880362 9.986388439854373
  endloop
endfacet
facet normal 2.682782649941663e-13 0.3826834323650902 -0.9238795325112866
  outer loop
    vertex -48.009054746937515 62.7674493915599 14.566266515039585
    vertex -53.00905474693755 63.3704017788036 14.816017571299707
    vertex -48.009054746937565 63.3704017788036 14.816017571301158
  endloop
endfacet
facet normal 2.682782649941663e-13 0.3826834323650902 -0.9238795325112866
  outer loop
    vertex -53.00905474693755 63.3704017788036 14.816017571299707
    vertex -48.009054746937515 62.7674493915599 14.566266515039585
    vertex -53.00905474693749 62.7674493915599 14.566266515038132
  endloop
endfacet
facet normal 1.1112449585050053e-13 0.9238795325112957 -0.3826834323650681
  outer loop
    vertex -48.00905474693709 61.60263482583725 13.04825061833479
    vertex -53.00905474693722 61.8523858820988 13.651203005577035
    vertex -48.009054746937224 61.8523858820988 13.651203005578488
  endloop
endfacet
facet normal 1.1112449585050053e-13 0.9238795325112957 -0.3826834323650681
  outer loop
    vertex -53.00905474693722 61.8523858820988 13.651203005577035
    vertex -48.00905474693709 61.60263482583725 13.04825061833479
    vertex -53.0090547469371 61.60263482583725 13.048250618333341
  endloop
endfacet
facet normal -2.303757688863601e-13 0.6087614290087224 0.7933533402912338
  outer loop
    vertex -48.00905474693623 62.7674493915599 10.236139496117394
    vertex -53.009054746936336 62.24968243859354 10.633436052610673
    vertex -48.0090547469363 62.24968243859354 10.633436052612119
  endloop
endfacet
facet normal -2.303757688863601e-13 0.6087614290087224 0.7933533402912338
  outer loop
    vertex -53.009054746936336 62.24968243859354 10.633436052610673
    vertex -48.00905474693623 62.7674493915599 10.236139496117394
    vertex -53.00905474693622 62.7674493915599 10.236139496115946
  endloop
endfacet
facet normal 2.682782649941663e-13 -0.3826834323650902 -0.9238795325112866
  outer loop
    vertex -53.00905474693755 64.66449700431622 14.816017571299707
    vertex -48.009054746937515 65.26744939155992 14.566266515039585
    vertex -48.009054746937565 64.66449700431622 14.816017571301158
  endloop
endfacet
facet normal 2.682782649941663e-13 -0.3826834323650902 -0.9238795325112866
  outer loop
    vertex -48.009054746937515 65.26744939155992 14.566266515039585
    vertex -53.00905474693755 64.66449700431622 14.816017571299707
    vertex -53.00905474693749 65.26744939155992 14.566266515038132
  endloop
endfacet
facet normal -3.790249610780704e-14 0.9914448613738098 0.13052619222005585
  outer loop
    vertex -48.00905474693686 61.517449391559914 12.401203005578488
    vertex -53.0090547469367 61.60263482583725 11.754155392820739
    vertex -53.009054746936854 61.517449391559914 12.401203005577042
  endloop
endfacet
facet normal -3.790249610780704e-14 0.9914448613738098 0.13052619222005585
  outer loop
    vertex -53.0090547469367 61.60263482583725 11.754155392820739
    vertex -48.00905474693686 61.517449391559914 12.401203005578488
    vertex -48.009054746936705 61.60263482583725 11.754155392822186
  endloop
endfacet
facet normal -2.87898040693415e-13 -0.13052619222004963 0.9914448613738107
  outer loop
    vertex -53.00905474693615 64.66449700431622 9.986388439854373
    vertex -48.009054746936165 64.01744939155991 9.90120300557849
    vertex -48.00905474693619 64.66449700431622 9.98638843985582
  endloop
endfacet
facet normal -2.87898040693415e-13 -0.13052619222004963 0.9914448613738107
  outer loop
    vertex -48.009054746936165 64.01744939155991 9.90120300557849
    vertex -53.00905474693615 64.66449700431622 9.986388439854373
    vertex -53.00905474693615 64.01744939155991 9.901203005577043
  endloop
endfacet
facet normal 0.0 1.0 0.0
  outer loop
    vertex -48.00905474693909 74.01744939155992 19.999999999986056
    vertex -53.00905474693331 74.01744939155992 -1.5394197028228974e-11
    vertex -53.00905474693911 74.01744939155992 19.999999999984606
  endloop
endfacet
facet normal 0.0 1.0 0.0
  outer loop
    vertex -53.00905474693331 74.01744939155992 -1.5394197028228974e-11
    vertex -48.00905474693909 74.01744939155992 19.999999999986056
    vertex -48.009054746934744 74.01744939155992 4.999999999986055
  endloop
endfacet
facet normal 0.0 1.0 0.0
  outer loop
    vertex -53.00905474693331 74.01744939155992 -1.5394197028228974e-11
    vertex -48.009054746934744 74.01744939155992 4.999999999986055
    vertex -48.009054746933295 74.01744939155992 -1.3941914289716805e-11
  endloop
endfacet
facet normal -1.0 0.0 -2.903823015376616e-13
  outer loop
    vertex -53.00905474693911 54.01744939155991 19.999999999984606
    vertex -53.00905474693722 61.8523858820988 13.651203005577035
    vertex -53.00905474693331 54.01744939155991 -1.5394197028228974e-11
  endloop
endfacet
facet normal -1.0 0.0 -2.903823015376616e-13
  outer loop
    vertex -53.00905474693722 61.8523858820988 13.651203005577035
    vertex -53.00905474693911 54.01744939155991 19.999999999984606
    vertex -53.009054746937394 62.24968243859354 14.168969958543405
  endloop
endfacet
facet normal -1.0 0.0 -2.903823015376616e-13
  outer loop
    vertex -53.009054746937394 62.24968243859354 14.168969958543405
    vertex -53.00905474693911 54.01744939155991 19.999999999984606
    vertex -53.00905474693749 62.7674493915599 14.566266515038132
  endloop
endfacet
facet normal -1.0 0.0 -2.903823015376616e-13
  outer loop
    vertex -53.00905474693749 62.7674493915599 14.566266515038132
    vertex -53.00905474693911 54.01744939155991 19.999999999984606
    vertex -53.00905474693911 74.01744939155992 19.999999999984606
  endloop
endfacet
facet normal -1.0 0.0 -2.903823015376616e-13
  outer loop
    vertex -53.00905474693331 54.01744939155991 -1.5394197028228974e-11
    vertex -53.00905474693722 61.8523858820988 13.651203005577035
    vertex -53.0090547469371 61.60263482583725 13.048250618333341
  endloop
endfacet
facet normal -1.0 0.0 -2.903823015376616e-13
  outer loop
    vertex -53.00905474693331 54.01744939155991 -1.5394197028228974e-11
    vertex -53.0090547469371 61.60263482583725 13.048250618333341
    vertex -53.009054746936854 61.517449391559914 12.401203005577042
  endloop
endfacet
facet normal -1.0 0.0 -2.903823015376616e-13
  outer loop
    vertex -53.00905474693749 62.7674493915599 14.566266515038132
    vertex -53.00905474693911 74.01744939155992 19.999999999984606
    vertex -53.00905474693755 63.3704017788036 14.816017571299707
  endloop
endfacet
facet normal -1.0 0.0 -2.903823015376616e-13
  outer loop
    vertex -53.00905474693755 63.3704017788036 14.816017571299707
    vertex -53.00905474693911 74.01744939155992 19.999999999984606
    vertex -53.00905474693757 64.01744939155991 14.901203005577036
  endloop
endfacet
facet normal -1.0 0.0 -2.903823015376616e-13
  outer loop
    vertex -53.00905474693757 64.01744939155991 14.901203005577036
    vertex -53.00905474693911 74.01744939155992 19.999999999984606
    vertex -53.00905474693755 64.66449700431622 14.816017571299707
  endloop
endfacet
facet normal -1.0 0.0 -2.903823015376616e-13
  outer loop
    vertex -53.00905474693755 64.66449700431622 14.816017571299707
    vertex -53.00905474693911 74.01744939155992 19.999999999984606
    vertex -53.00905474693749 65.26744939155992 14.566266515038132
  endloop
endfacet
facet normal -1.0 0.0 -2.903823015376616e-13
  outer loop
    vertex -53.00905474693749 65.26744939155992 14.566266515038132
    vertex -53.00905474693911 74.01744939155992 19.999999999984606
    vertex -53.009054746937394 65.78521634452629 14.168969958543405
  endloop
endfacet
facet normal -1.0 0.0 -2.903823015376616e-13
  outer loop
    vertex -53.009054746937394 65.78521634452629 14.168969958543405
    vertex -53.00905474693911 74.01744939155992 19.999999999984606
    vertex -53.00905474693722 66.18251290102101 13.651203005577038
  endloop
endfacet
facet normal -1.0 0.0 -2.903823015376616e-13
  outer loop
    vertex -53.00905474693722 66.18251290102101 13.651203005577038
    vertex -53.00905474693911 74.01744939155992 19.999999999984606
    vertex -53.0090547469371 66.43226395728257 13.048250618333341
  endloop
endfacet
facet normal -1.0 0.0 -2.903823015376616e-13
  outer loop
    vertex -53.0090547469371 66.43226395728257 13.048250618333341
    vertex -53.00905474693911 74.01744939155992 19.999999999984606
    vertex -53.009054746936854 66.51744939155991 12.401203005577042
  endloop
endfacet
facet normal -1.0 0.0 -2.903823015376616e-13
  outer loop
    vertex -53.00905474693331 54.01744939155991 -1.5394197028228974e-11
    vertex -53.009054746936336 62.24968243859354 10.633436052610673
    vertex -53.00905474693331 74.01744939155992 -1.5394197028228974e-11
  endloop
endfacet
facet normal -1.0 0.0 -2.903823015376616e-13
  outer loop
    vertex -53.009054746936336 62.24968243859354 10.633436052610673
    vertex -53.00905474693331 54.01744939155991 -1.5394197028228974e-11
    vertex -53.00905474693649 61.85238588209883 11.151203005577042
  endloop
endfacet
facet normal -1.0 0.0 -2.903823015376616e-13
  outer loop
    vertex -53.00905474693649 61.85238588209883 11.151203005577042
    vertex -53.00905474693331 54.01744939155991 -1.5394197028228974e-11
    vertex -53.0090547469367 61.60263482583725 11.754155392820739
  endloop
endfacet
facet normal -1.0 0.0 -2.903823015376616e-13
  outer loop
    vertex -53.0090547469367 61.60263482583725 11.754155392820739
    vertex -53.00905474693331 54.01744939155991 -1.5394197028228974e-11
    vertex -53.009054746936854 61.517449391559914 12.401203005577042
  endloop
endfacet
facet normal -1.0 0.0 -2.903823015376616e-13
  outer loop
    vertex -53.00905474693331 74.01744939155992 -1.5394197028228974e-11
    vertex -53.009054746936336 62.24968243859354 10.633436052610673
    vertex -53.00905474693622 62.7674493915599 10.236139496115946
  endloop
endfacet
facet normal -1.0 0.0 -2.903823015376616e-13
  outer loop
    vertex -53.00905474693331 74.01744939155992 -1.5394197028228974e-11
    vertex -53.00905474693622 62.7674493915599 10.236139496115946
    vertex -53.00905474693615 63.37040177880362 9.986388439854373
  endloop
endfacet
facet normal -1.0 0.0 -2.903823015376616e-13
  outer loop
    vertex -53.00905474693331 74.01744939155992 -1.5394197028228974e-11
    vertex -53.00905474693615 63.37040177880362 9.986388439854373
    vertex -53.00905474693615 64.01744939155991 9.901203005577043
  endloop
endfacet
facet normal -1.0 0.0 -2.903823015376616e-13
  outer loop
    vertex -53.00905474693331 74.01744939155992 -1.5394197028228974e-11
    vertex -53.00905474693615 64.01744939155991 9.901203005577043
    vertex -53.00905474693615 64.66449700431622 9.986388439854373
  endloop
endfacet
facet normal -1.0 0.0 -2.903823015376616e-13
  outer loop
    vertex -53.00905474693331 74.01744939155992 -1.5394197028228974e-11
    vertex -53.00905474693615 64.66449700431622 9.986388439854373
    vertex -53.00905474693622 65.26744939155992 10.236139496115946
  endloop
endfacet
facet normal -1.0 0.0 -2.903823015376616e-13
  outer loop
    vertex -53.00905474693331 74.01744939155992 -1.5394197028228974e-11
    vertex -53.00905474693622 65.26744939155992 10.236139496115946
    vertex -53.009054746936336 65.78521634452629 10.633436052610675
  endloop
endfacet
facet normal -1.0 0.0 -2.903823015376616e-13
  outer loop
    vertex -53.00905474693331 74.01744939155992 -1.5394197028228974e-11
    vertex -53.009054746936336 65.78521634452629 10.633436052610675
    vertex -53.00905474693649 66.18251290102101 11.151203005577042
  endloop
endfacet
facet normal -1.0 0.0 -2.903823015376616e-13
  outer loop
    vertex -53.00905474693331 74.01744939155992 -1.5394197028228974e-11
    vertex -53.00905474693649 66.18251290102101 11.151203005577042
    vertex -53.0090547469367 66.43226395728257 11.75415539282074
  endloop
endfacet
facet normal -1.0 0.0 -2.903823015376616e-13
  outer loop
    vertex -53.00905474693331 74.01744939155992 -1.5394197028228974e-11
    vertex -53.0090547469367 66.43226395728257 11.75415539282074
    vertex -53.009054746936854 66.51744939155991 12.401203005577042
  endloop
endfacet
facet normal -1.0 0.0 -2.903823015376616e-13
  outer loop
    vertex -53.00905474693331 74.01744939155992 -1.5394197028228974e-11
    vertex -53.009054746936854 66.51744939155991 12.401203005577042
    vertex -53.00905474693911 74.01744939155992 19.999999999984606
  endloop
endfacet
facet normal 1.0 0.0 2.902685499369302e-13
  outer loop
    vertex -48.009054746934744 49.017449391559914 4.999999999986055
    vertex -48.00905474693623 62.7674493915599 10.236139496117394
    vertex -48.00905474693909 49.017449391559914 19.999999999986056
  endloop
endfacet
facet normal 1.0 0.0 2.902685499369302e-13
  outer loop
    vertex -48.00905474693623 62.7674493915599 10.236139496117394
    vertex -48.009054746934744 49.017449391559914 4.999999999986055
    vertex -48.009054746934744 74.01744939155992 4.999999999986055
  endloop
endfacet
facet normal 1.0 0.0 2.902685499369302e-13
  outer loop
    vertex -48.00905474693909 49.017449391559914 19.999999999986056
    vertex -48.00905474693623 62.7674493915599 10.236139496117394
    vertex -48.0090547469363 62.24968243859354 10.633436052612119
  endloop
endfacet
facet normal 1.0 0.0 2.902685499369302e-13
  outer loop
    vertex -48.00905474693909 49.017449391559914 19.999999999986056
    vertex -48.0090547469363 62.24968243859354 10.633436052612119
    vertex -48.00905474693652 61.85238588209883 11.151203005578488
  endloop
endfacet
facet normal 1.0 0.0 2.902685499369302e-13
  outer loop
    vertex -48.00905474693909 49.017449391559914 19.999999999986056
    vertex -48.00905474693652 61.85238588209883 11.151203005578488
    vertex -48.009054746936705 61.60263482583725 11.754155392822186
  endloop
endfacet
facet normal 1.0 0.0 2.902685499369302e-13
  outer loop
    vertex -48.00905474693909 49.017449391559914 19.999999999986056
    vertex -48.009054746936705 61.60263482583725 11.754155392822186
    vertex -48.00905474693686 61.517449391559914 12.401203005578488
  endloop
endfacet
facet normal 1.0 0.0 2.902685499369302e-13
  outer loop
    vertex -48.00905474693623 62.7674493915599 10.236139496117394
    vertex -48.009054746934744 74.01744939155992 4.999999999986055
    vertex -48.00905474693619 63.37040177880362 9.98638843985582
  endloop
endfacet
facet normal 1.0 0.0 2.902685499369302e-13
  outer loop
    vertex -48.00905474693619 63.37040177880362 9.98638843985582
    vertex -48.009054746934744 74.01744939155992 4.999999999986055
    vertex -48.009054746936165 64.01744939155991 9.90120300557849
  endloop
endfacet
facet normal 1.0 0.0 2.902685499369302e-13
  outer loop
    vertex -48.009054746936165 64.01744939155991 9.90120300557849
    vertex -48.009054746934744 74.01744939155992 4.999999999986055
    vertex -48.00905474693619 64.66449700431622 9.98638843985582
  endloop
endfacet
facet normal 1.0 0.0 2.902685499369302e-13
  outer loop
    vertex -48.00905474693619 64.66449700431622 9.98638843985582
    vertex -48.009054746934744 74.01744939155992 4.999999999986055
    vertex -48.00905474693623 65.26744939155992 10.236139496117394
  endloop
endfacet
facet normal 1.0 0.0 2.902685499369302e-13
  outer loop
    vertex -48.00905474693623 65.26744939155992 10.236139496117394
    vertex -48.009054746934744 74.01744939155992 4.999999999986055
    vertex -48.0090547469363 65.78521634452629 10.63343605261212
  endloop
endfacet
facet normal 1.0 0.0 2.902685499369302e-13
  outer loop
    vertex -48.0090547469363 65.78521634452629 10.63343605261212
    vertex -48.009054746934744 74.01744939155992 4.999999999986055
    vertex -48.00905474693652 66.18251290102101 11.15120300557849
  endloop
endfacet
facet normal 1.0 0.0 2.902685499369302e-13
  outer loop
    vertex -48.00905474693652 66.18251290102101 11.15120300557849
    vertex -48.009054746934744 74.01744939155992 4.999999999986055
    vertex -48.009054746936705 66.43226395728257 11.754155392822186
  endloop
endfacet
facet normal 1.0 0.0 2.902685499369302e-13
  outer loop
    vertex -48.009054746936705 66.43226395728257 11.754155392822186
    vertex -48.009054746934744 74.01744939155992 4.999999999986055
    vertex -48.00905474693686 66.51744939155991 12.401203005578488
  endloop
endfacet
facet normal 1.0 0.0 2.902685499369302e-13
  outer loop
    vertex -48.00905474693909 49.017449391559914 19.999999999986056
    vertex -48.009054746937515 62.7674493915599 14.566266515039585
    vertex -48.00905474693909 74.01744939155992 19.999999999986056
  endloop
endfacet
facet normal 1.0 0.0 2.902685499369302e-13
  outer loop
    vertex -48.009054746937515 62.7674493915599 14.566266515039585
    vertex -48.00905474693909 49.017449391559914 19.999999999986056
    vertex -48.0090547469374 62.24968243859354 14.168969958544857
  endloop
endfacet
facet normal 1.0 0.0 2.902685499369302e-13
  outer loop
    vertex -48.0090547469374 62.24968243859354 14.168969958544857
    vertex -48.00905474693909 49.017449391559914 19.999999999986056
    vertex -48.009054746937224 61.8523858820988 13.651203005578488
  endloop
endfacet
facet normal 1.0 0.0 2.902685499369302e-13
  outer loop
    vertex -48.009054746937224 61.8523858820988 13.651203005578488
    vertex -48.00905474693909 49.017449391559914 19.999999999986056
    vertex -48.00905474693709 61.60263482583725 13.04825061833479
  endloop
endfacet
facet normal 1.0 0.0 2.902685499369302e-13
  outer loop
    vertex -48.00905474693709 61.60263482583725 13.04825061833479
    vertex -48.00905474693909 49.017449391559914 19.999999999986056
    vertex -48.00905474693686 61.517449391559914 12.401203005578488
  endloop
endfacet
facet normal 1.0 0.0 2.902685499369302e-13
  outer loop
    vertex -48.00905474693909 74.01744939155992 19.999999999986056
    vertex -48.009054746937515 62.7674493915599 14.566266515039585
    vertex -48.009054746937565 63.3704017788036 14.816017571301158
  endloop
endfacet
facet normal 1.0 0.0 2.902685499369302e-13
  outer loop
    vertex -48.00905474693909 74.01744939155992 19.999999999986056
    vertex -48.009054746937565 63.3704017788036 14.816017571301158
    vertex -48.009054746937586 64.01744939155991 14.901203005578491
  endloop
endfacet
facet normal 1.0 0.0 2.902685499369302e-13
  outer loop
    vertex -48.00905474693909 74.01744939155992 19.999999999986056
    vertex -48.009054746937586 64.01744939155991 14.901203005578491
    vertex -48.009054746937565 64.66449700431622 14.816017571301158
  endloop
endfacet
facet normal 1.0 0.0 2.902685499369302e-13
  outer loop
    vertex -48.00905474693909 74.01744939155992 19.999999999986056
    vertex -48.009054746937565 64.66449700431622 14.816017571301158
    vertex -48.009054746937515 65.26744939155992 14.566266515039585
  endloop
endfacet
facet normal 1.0 0.0 2.902685499369302e-13
  outer loop
    vertex -48.00905474693909 74.01744939155992 19.999999999986056
    vertex -48.009054746937515 65.26744939155992 14.566266515039585
    vertex -48.0090547469374 65.78521634452629 14.168969958544857
  endloop
endfacet
facet normal 1.0 0.0 2.902685499369302e-13
  outer loop
    vertex -48.00905474693909 74.01744939155992 19.999999999986056
    vertex -48.0090547469374 65.78521634452629 14.168969958544857
    vertex -48.009054746937224 66.18251290102101 13.651203005578493
  endloop
endfacet
facet normal 1.0 0.0 2.902685499369302e-13
  outer loop
    vertex -48.00905474693909 74.01744939155992 19.999999999986056
    vertex -48.009054746937224 66.18251290102101 13.651203005578493
    vertex -48.00905474693709 66.43226395728257 13.04825061833479
  endloop
endfacet
facet normal 1.0 0.0 2.902685499369302e-13
  outer loop
    vertex -48.00905474693909 74.01744939155992 19.999999999986056
    vertex -48.00905474693709 66.43226395728257 13.04825061833479
    vertex -48.00905474693686 66.51744939155991 12.401203005578488
  endloop
endfacet
facet normal 1.0 0.0 2.902685499369302e-13
  outer loop
    vertex -48.00905474693909 74.01744939155992 19.999999999986056
    vertex -48.00905474693686 66.51744939155991 12.401203005578488
    vertex -48.009054746934744 74.01744939155992 4.999999999986055
  endloop
endfacet
facet normal 0.0 1.0 0.0
  outer loop
    vertex -53.00905474693331 54.01744939155991 -1.5394197028228974e-11
    vertex -73.0090547469391 54.01744939155991 19.9999999999788
    vertex -53.00905474693911 54.01744939155991 19.999999999984606
  endloop
endfacet
facet normal 0.0 1.0 0.0
  outer loop
    vertex -73.0090547469391 54.01744939155991 19.9999999999788
    vertex -53.00905474693331 54.01744939155991 -1.5394197028228974e-11
    vertex -73.0090547469333 54.01744939155991 -2.1208967915242737e-11
  endloop
endfacet
facet normal 0.5947771837198085 0.8038906030837364 1.7230243887235792e-13
  outer loop
    vertex 37.99991725006777 -14.618291519923812 5.000000000011
    vertex -48.00905474693909 49.017449391559914 19.999999999986056
    vertex 37.99991725006345 -14.618291519923812 20.000000000011028
  endloop
endfacet
facet normal 0.5947771837198085 0.8038906030837364 1.7230243887235792e-13
  outer loop
    vertex -48.00905474693909 49.017449391559914 19.999999999986056
    vertex 37.99991725006777 -14.618291519923812 5.000000000011
    vertex -48.009054746934744 49.017449391559914 4.999999999986055
  endloop
endfacet
facet normal -0.5947771837198085 -0.8038906030837364 -1.7344839531653873e-13
  outer loop
    vertex -73.0090547469391 54.01744939155991 19.9999999999788
    vertex 73.00905474693327 -54.017449391559886 2.1208967915242737e-11
    vertex 73.0090547469274 -54.017449391559886 20.000000000021206
  endloop
endfacet
facet normal -0.5947771837198085 -0.8038906030837364 -1.7344839531653873e-13
  outer loop
    vertex 73.00905474693327 -54.017449391559886 2.1208967915242737e-11
    vertex -73.0090547469391 54.01744939155991 19.9999999999788
    vertex -73.0090547469333 54.01744939155991 -2.1208967915242737e-11
  endloop
endfacet
facet normal 0.5947771837198086 0.8038906030837364 1.7330848026495025e-13
  outer loop
    vertex 86.004922280088 -36.45245854324634 2.497362316944418e-11
    vertex 61.740400461841396 -18.499787003114157 20.00000000001792
    vertex 86.00492228008217 -36.45245854324634 20.000000000024972
  endloop
endfacet
facet normal 0.5947771837198086 0.8038906030837364 1.7330848026495025e-13
  outer loop
    vertex 61.740400461841396 -18.499787003114157 20.00000000001792
    vertex 86.004922280088 -36.45245854324634 2.497362316944418e-11
    vertex 61.74040046184577 -18.499787003114157 5.0000000000179
  endloop
endfacet
facet normal 0.5947771837198086 0.8038906030837364 1.7330848026495025e-13
  outer loop
    vertex 61.74040046184577 -18.499787003114157 5.0000000000179
    vertex 86.004922280088 -36.45245854324634 2.497362316944418e-11
    vertex 61.74040046184724 -18.499787003114157 1.7926526929556984e-11
  endloop
endfacet
facet normal -2.901729833591954e-13 1.39651221214327e-16 1.0
  outer loop
    vertex -48.009054746934744 74.01744939155992 4.999999999986055
    vertex 37.99991725006777 -14.618291519923812 5.000000000011
    vertex 61.74040046184577 -18.499787003114157 5.0000000000179
  endloop
endfacet
facet normal -2.901729833591954e-13 1.39651221214327e-16 1.0
  outer loop
    vertex 37.99991725006777 -14.618291519923812 5.000000000011
    vertex -48.009054746934744 74.01744939155992 4.999999999986055
    vertex -48.009054746934744 49.017449391559914 4.999999999986055
  endloop
endfacet
facet normal 0.6445295826532174 0.7645793726519631 1.87355584444455e-13
  outer loop
    vertex 61.74040046184577 -18.499787003114157 5.0000000000179
    vertex -48.009054746933295 74.01744939155992 -1.3941914289716805e-11
    vertex -48.009054746934744 74.01744939155992 4.999999999986055
  endloop
endfacet
facet normal 0.6445295826532174 0.7645793726519631 1.87355584444455e-13
  outer loop
    vertex -48.009054746933295 74.01744939155992 -1.3941914289716805e-11
    vertex 61.74040046184577 -18.499787003114157 5.0000000000179
    vertex 61.74040046184724 -18.499787003114157 1.7926526929556984e-11
  endloop
endfacet
facet normal 0.16135452277635043 0.9868965082416781 4.676077532327709e-14
  outer loop
    vertex 61.740400461841396 -18.499787003114157 20.00000000001792
    vertex 37.99991725006777 -14.618291519923812 5.000000000011
    vertex 37.99991725006345 -14.618291519923812 20.000000000011028
  endloop
endfacet
facet normal 0.16135452277635043 0.9868965082416781 4.676077532327709e-14
  outer loop
    vertex 37.99991725006777 -14.618291519923812 5.000000000011
    vertex 61.740400461841396 -18.499787003114157 20.00000000001792
    vertex 61.74040046184577 -18.499787003114157 5.0000000000179
  endloop
endfacet
facet normal -2.903283155602038e-13 4.411148857719771e-17 1.0
  outer loop
    vertex 61.740400461841396 -18.499787003114157 20.00000000001792
    vertex 81.72331217506336 -42.239409058003204 20.000000000023732
    vertex 86.00492228008217 -36.45245854324634 20.000000000024972
  endloop
endfacet
facet normal -2.903283155602038e-13 4.411148857719771e-17 1.0
  outer loop
    vertex 81.72331217506336 -42.239409058003204 20.000000000023732
    vertex 61.740400461841396 -18.499787003114157 20.00000000001792
    vertex 77.70385915964468 -39.26552313940416 20.000000000022563
  endloop
endfacet
facet normal -2.903283155602038e-13 4.411148857719771e-17 1.0
  outer loop
    vertex 77.70385915964468 -39.26552313940416 20.000000000022563
    vertex 61.740400461841396 -18.499787003114157 20.00000000001792
    vertex 69.86543436842251 -33.25088825385612 20.000000000020282
  endloop
endfacet
facet normal -2.903283155602038e-13 4.411148857719771e-17 1.0
  outer loop
    vertex 69.86543436842251 -33.25088825385612 20.000000000020282
    vertex 61.740400461841396 -18.499787003114157 20.00000000001792
    vertex 68.9007105488326 -32.8512865638376 20.000000000020002
  endloop
endfacet
facet normal -2.903283155602038e-13 4.411148857719771e-17 1.0
  outer loop
    vertex 68.9007105488326 -32.8512865638376 20.000000000020002
    vertex 61.740400461841396 -18.499787003114157 20.00000000001792
    vertex 67.86543436842253 -32.714989868993875 20.000000000019703
  endloop
endfacet
facet normal -2.903283155602038e-13 4.411148857719771e-17 1.0
  outer loop
    vertex 67.86543436842253 -32.714989868993875 20.000000000019703
    vertex 61.740400461841396 -18.499787003114157 20.00000000001792
    vertex 66.83015818801245 -32.8512865638376 20.0000000000194
  endloop
endfacet
facet normal -2.903283155602038e-13 4.411148857719771e-17 1.0
  outer loop
    vertex 66.83015818801245 -32.8512865638376 20.0000000000194
    vertex 61.740400461841396 -18.499787003114157 20.00000000001792
    vertex 65.86543436842251 -33.25088825385612 20.00000000001912
  endloop
endfacet
facet normal -2.903283155602038e-13 4.411148857719771e-17 1.0
  outer loop
    vertex 65.86543436842251 -33.25088825385612 20.00000000001912
    vertex 61.740400461841396 -18.499787003114157 20.00000000001792
    vertex 65.03700724367633 -33.886562744247684 20.00000000001888
  endloop
endfacet
facet normal -2.903283155602038e-13 4.411148857719771e-17 1.0
  outer loop
    vertex 65.03700724367633 -33.886562744247684 20.00000000001888
    vertex 61.740400461841396 -18.499787003114157 20.00000000001792
    vertex 64.67689274597802 -34.355873094776044 20.000000000018776
  endloop
endfacet
facet normal -2.903283155602038e-13 4.411148857719771e-17 1.0
  outer loop
    vertex 64.67689274597802 -34.355873094776044 20.000000000018776
    vertex 61.740400461841396 -18.499787003114157 20.00000000001792
    vertex 64.40133275328476 -34.714989868993875 20.000000000018698
  endloop
endfacet
facet normal -2.903283155602038e-13 4.411148857719771e-17 1.0
  outer loop
    vertex 64.40133275328476 -34.714989868993875 20.000000000018698
    vertex 61.740400461841396 -18.499787003114157 20.00000000001792
    vertex 64.00173106326625 -35.67971368858379 20.00000000001858
  endloop
endfacet
facet normal -2.903283155602038e-13 4.411148857719771e-17 1.0
  outer loop
    vertex 64.00173106326625 -35.67971368858379 20.00000000001858
    vertex 61.740400461841396 -18.499787003114157 20.00000000001792
    vertex 63.86543436842252 -36.714989868993875 20.00000000001854
  endloop
endfacet
facet normal -2.903283155602038e-13 4.411148857719771e-17 1.0
  outer loop
    vertex -53.00905474693911 74.01744939155992 19.999999999984606
    vertex -48.00905474693909 49.017449391559914 19.999999999986056
    vertex -48.00905474693909 74.01744939155992 19.999999999986056
  endloop
endfacet
facet normal -2.903283155602038e-13 4.411148857719771e-17 1.0
  outer loop
    vertex 72.9156297623162 -45.737211568755505 20.00000000002117
    vertex 73.0090547469274 -54.017449391559886 20.000000000021206
    vertex 76.93508277773489 -48.71109748735458 20.000000000022347
  endloop
endfacet
facet normal -2.903283155602038e-13 4.411148857719771e-17 1.0
  outer loop
    vertex 73.0090547469274 -54.017449391559886 20.000000000021206
    vertex 72.9156297623162 -45.737211568755505 20.00000000002117
    vertex -73.0090547469391 54.01744939155991 19.9999999999788
  endloop
endfacet
facet normal -2.903283155602038e-13 4.411148857719771e-17 1.0
  outer loop
    vertex -73.0090547469391 54.01744939155991 19.9999999999788
    vertex 72.9156297623162 -45.737211568755505 20.00000000002117
    vertex 65.86543436842253 -40.17909148413163 20.00000000001912
  endloop
endfacet
facet normal -2.903283155602038e-13 4.411148857719771e-17 1.0
  outer loop
    vertex -73.0090547469391 54.01744939155991 19.9999999999788
    vertex 65.86543436842253 -40.17909148413163 20.00000000001912
    vertex 65.03700724367633 -39.54341699374007 20.00000000001888
  endloop
endfacet
facet normal -2.903283155602038e-13 4.411148857719771e-17 1.0
  outer loop
    vertex -73.0090547469391 54.01744939155991 19.9999999999788
    vertex 65.03700724367633 -39.54341699374007 20.00000000001888
    vertex 64.40133275328476 -38.714989868993875 20.000000000018698
  endloop
endfacet
facet normal -2.903283155602038e-13 4.411148857719771e-17 1.0
  outer loop
    vertex -73.0090547469391 54.01744939155991 19.9999999999788
    vertex 64.40133275328476 -38.714989868993875 20.000000000018698
    vertex 64.00173106326625 -37.75026604940396 20.00000000001858
  endloop
endfacet
facet normal -2.903283155602038e-13 4.411148857719771e-17 1.0
  outer loop
    vertex -73.0090547469391 54.01744939155991 19.9999999999788
    vertex 64.00173106326625 -37.75026604940396 20.00000000001858
    vertex 63.86543436842252 -36.714989868993875 20.00000000001854
  endloop
endfacet
facet normal -2.903283155602038e-13 4.411148857719771e-17 1.0
  outer loop
    vertex -73.0090547469391 54.01744939155991 19.9999999999788
    vertex 63.86543436842252 -36.714989868993875 20.00000000001854
    vertex 37.99991725006345 -14.618291519923812 20.000000000011028
  endloop
endfacet
facet normal -2.903283155602038e-13 4.411148857719771e-17 1.0
  outer loop
    vertex 37.99991725006345 -14.618291519923812 20.000000000011028
    vertex 63.86543436842252 -36.714989868993875 20.00000000001854
    vertex 61.740400461841396 -18.499787003114157 20.00000000001792
  endloop
endfacet
facet normal -2.903283155602038e-13 4.411148857719771e-17 1.0
  outer loop
    vertex -73.0090547469391 54.01744939155991 19.9999999999788
    vertex 37.99991725006345 -14.618291519923812 20.000000000011028
    vertex -48.00905474693909 49.017449391559914 19.999999999986056
  endloop
endfacet
facet normal -2.903283155602038e-13 4.411148857719771e-17 1.0
  outer loop
    vertex -73.0090547469391 54.01744939155991 19.9999999999788
    vertex -48.00905474693909 49.017449391559914 19.999999999986056
    vertex -53.00905474693911 54.01744939155991 19.999999999984606
  endloop
endfacet
facet normal -2.903283155602038e-13 4.411148857719771e-17 1.0
  outer loop
    vertex -53.00905474693911 54.01744939155991 19.999999999984606
    vertex -48.00905474693909 49.017449391559914 19.999999999986056
    vertex -53.00905474693911 74.01744939155992 19.999999999984606
  endloop
endfacet
facet normal 2.9043647627902727e-13 4.870682132041685e-17 -1.0
  outer loop
    vertex 81.7233121750692 -42.239409058003204 2.3735657883605653e-11
    vertex 61.74040046184724 -18.499787003114157 1.7926526929556984e-11
    vertex 86.004922280088 -36.45245854324634 2.497362316944418e-11
  endloop
endfacet
facet normal 2.9043647627902727e-13 4.870682132041685e-17 -1.0
  outer loop
    vertex 61.74040046184724 -18.499787003114157 1.7926526929556984e-11
    vertex 81.7233121750692 -42.239409058003204 2.3735657883605653e-11
    vertex 77.70385915965052 -39.26552313940416 2.2568191759830823e-11
  endloop
endfacet
facet normal 2.9043647627902727e-13 4.870682132041685e-17 -1.0
  outer loop
    vertex 61.74040046184724 -18.499787003114157 1.7926526929556984e-11
    vertex 77.70385915965052 -39.26552313940416 2.2568191759830823e-11
    vertex 69.86543436842837 -33.25088825385612 2.0286838875449573e-11
  endloop
endfacet
facet normal 2.9043647627902727e-13 4.870682132041685e-17 -1.0
  outer loop
    vertex 61.74040046184724 -18.499787003114157 1.7926526929556984e-11
    vertex 69.86543436842837 -33.25088825385612 2.0286838875449573e-11
    vertex 68.90071054883845 -32.8512865638376 2.0004842227194783e-11
  endloop
endfacet
facet normal 2.9043647627902727e-13 4.870682132041685e-17 -1.0
  outer loop
    vertex 61.74040046184724 -18.499787003114157 1.7926526929556984e-11
    vertex 68.90071054883845 -32.8512865638376 2.0004842227194783e-11
    vertex 67.86543436842837 -32.714989868993875 1.9705925780044707e-11
  endloop
endfacet
facet normal 2.9043647627902727e-13 4.870682132041685e-17 -1.0
  outer loop
    vertex 61.74040046184724 -18.499787003114157 1.7926526929556984e-11
    vertex 67.86543436842837 -32.714989868993875 1.9705925780044707e-11
    vertex 66.83015818801829 -32.8512865638376 1.9404189366412083e-11
  endloop
endfacet
facet normal 2.9043647627902727e-13 4.870682132041685e-17 -1.0
  outer loop
    vertex 61.74040046184724 -18.499787003114157 1.7926526929556984e-11
    vertex 66.83015818801829 -32.8512865638376 1.9404189366412083e-11
    vertex 65.86543436842835 -33.25088825385612 1.912501268463984e-11
  endloop
endfacet
facet normal 2.9043647627902727e-13 4.870682132041685e-17 -1.0
  outer loop
    vertex 61.74040046184724 -18.499787003114157 1.7926526929556984e-11
    vertex 65.86543436842835 -33.25088825385612 1.912501268463984e-11
    vertex 65.03700724368217 -33.886562744247684 1.8882495567140722e-11
  endloop
endfacet
facet normal 2.9043647627902727e-13 4.870682132041685e-17 -1.0
  outer loop
    vertex 61.74040046184724 -18.499787003114157 1.7926526929556984e-11
    vertex 65.03700724368217 -33.886562744247684 1.8882495567140722e-11
    vertex 64.67689274598386 -34.355873094776044 1.8778156807286448e-11
  endloop
endfacet
facet normal 2.9043647627902727e-13 4.870682132041685e-17 -1.0
  outer loop
    vertex 61.74040046184724 -18.499787003114157 1.7926526929556984e-11
    vertex 64.67689274598386 -34.355873094776044 1.8778156807286448e-11
    vertex 64.4013327532906 -34.714989868993875 1.869919774577511e-11
  endloop
endfacet
facet normal 2.9043647627902727e-13 4.870682132041685e-17 -1.0
  outer loop
    vertex 61.74040046184724 -18.499787003114157 1.7926526929556984e-11
    vertex 64.4013327532906 -34.714989868993875 1.869919774577511e-11
    vertex 64.00173106327209 -35.67971368858379 1.8583579119990645e-11
  endloop
endfacet
facet normal 2.9043647627902727e-13 4.870682132041685e-17 -1.0
  outer loop
    vertex 61.74040046184724 -18.499787003114157 1.7926526929556984e-11
    vertex 64.00173106327209 -35.67971368858379 1.8583579119990645e-11
    vertex 63.86543436842836 -36.714989868993875 1.8544099589234974e-11
  endloop
endfacet
facet normal 2.9043647627902727e-13 4.870682132041685e-17 -1.0
  outer loop
    vertex 73.00905474693327 -54.017449391559886 2.1208967915242737e-11
    vertex 72.91562976232204 -45.737211568755505 2.1172308350969613e-11
    vertex 76.93508277774073 -48.71109748735458 2.2351054340674636e-11
  endloop
endfacet
facet normal 2.9043647627902727e-13 4.870682132041685e-17 -1.0
  outer loop
    vertex 72.91562976232204 -45.737211568755505 2.1172308350969613e-11
    vertex 73.00905474693327 -54.017449391559886 2.1208967915242737e-11
    vertex -73.0090547469333 54.01744939155991 -2.1208967915242737e-11
  endloop
endfacet
facet normal 2.9043647627902727e-13 4.870682132041685e-17 -1.0
  outer loop
    vertex 72.91562976232204 -45.737211568755505 2.1172308350969613e-11
    vertex -73.0090547469333 54.01744939155991 -2.1208967915242737e-11
    vertex 65.86543436842837 -40.17909148413163 1.912501268463984e-11
  endloop
endfacet
facet normal 2.9043647627902727e-13 4.870682132041685e-17 -1.0
  outer loop
    vertex 65.86543436842837 -40.17909148413163 1.912501268463984e-11
    vertex -73.0090547469333 54.01744939155991 -2.1208967915242737e-11
    vertex 65.03700724368217 -39.54341699374007 1.8882495567140722e-11
  endloop
endfacet
facet normal 2.9043647627902727e-13 4.870682132041685e-17 -1.0
  outer loop
    vertex 65.03700724368217 -39.54341699374007 1.8882495567140722e-11
    vertex -73.0090547469333 54.01744939155991 -2.1208967915242737e-11
    vertex 64.4013327532906 -38.714989868993875 1.869919774577511e-11
  endloop
endfacet
facet normal 2.9043647627902727e-13 4.870682132041685e-17 -1.0
  outer loop
    vertex 64.4013327532906 -38.714989868993875 1.869919774577511e-11
    vertex -73.0090547469333 54.01744939155991 -2.1208967915242737e-11
    vertex 64.00173106327209 -37.75026604940396 1.8583579119990645e-11
  endloop
endfacet
facet normal 2.9043647627902727e-13 4.870682132041685e-17 -1.0
  outer loop
    vertex 64.00173106327209 -37.75026604940396 1.8583579119990645e-11
    vertex -73.0090547469333 54.01744939155991 -2.1208967915242737e-11
    vertex 63.86543436842836 -36.714989868993875 1.8544099589234974e-11
  endloop
endfacet
facet normal 2.9043647627902727e-13 4.870682132041685e-17 -1.0
  outer loop
    vertex 63.86543436842836 -36.714989868993875 1.8544099589234974e-11
    vertex -73.0090547469333 54.01744939155991 -2.1208967915242737e-11
    vertex 61.74040046184724 -18.499787003114157 1.7926526929556984e-11
  endloop
endfacet
facet normal 2.9043647627902727e-13 4.870682132041685e-17 -1.0
  outer loop
    vertex 61.74040046184724 -18.499787003114157 1.7926526929556984e-11
    vertex -73.0090547469333 54.01744939155991 -2.1208967915242737e-11
    vertex -53.00905474693331 54.01744939155991 -1.5394197028228974e-11
  endloop
endfacet
facet normal 2.9043647627902727e-13 4.870682132041685e-17 -1.0
  outer loop
    vertex 61.74040046184724 -18.499787003114157 1.7926526929556984e-11
    vertex -53.00905474693331 54.01744939155991 -1.5394197028228974e-11
    vertex -48.009054746933295 74.01744939155992 -1.3941914289716805e-11
  endloop
endfacet
facet normal 2.9043647627902727e-13 4.870682132041685e-17 -1.0
  outer loop
    vertex -53.00905474693331 74.01744939155992 -1.5394197028228974e-11
    vertex -48.009054746933295 74.01744939155992 -1.3941914289716805e-11
    vertex -53.00905474693331 54.01744939155991 -1.5394197028228974e-11
  endloop
endfacet
facet normal -0.3826834323650914 -0.9238795325112863 -1.1118696537171575e-13
  outer loop
    vertex 68.90071054883845 -32.8512865638376 2.0004842227194783e-11
    vertex 69.86543436842251 -33.25088825385612 20.000000000020282
    vertex 68.9007105488326 -32.8512865638376 20.000000000020002
  endloop
endfacet
facet normal -0.3826834323650914 -0.9238795325112863 -1.1118696537171575e-13
  outer loop
    vertex 69.86543436842251 -33.25088825385612 20.000000000020282
    vertex 68.90071054883845 -32.8512865638376 2.0004842227194783e-11
    vertex 69.86543436842837 -33.25088825385612 2.0286838875449573e-11
  endloop
endfacet
facet normal -0.13052619222005216 -0.9914448613738104 -3.791933273453973e-14
  outer loop
    vertex 67.86543436842837 -32.714989868993875 1.9705925780044707e-11
    vertex 68.9007105488326 -32.8512865638376 20.000000000020002
    vertex 67.86543436842253 -32.714989868993875 20.000000000019703
  endloop
endfacet
facet normal -0.13052619222005216 -0.9914448613738104 -3.791933273453973e-14
  outer loop
    vertex 68.9007105488326 -32.8512865638376 20.000000000020002
    vertex 67.86543436842837 -32.714989868993875 1.9705925780044707e-11
    vertex 68.90071054883845 -32.8512865638376 2.0004842227194783e-11
  endloop
endfacet
facet normal 0.13052619222005216 -0.9914448613738104 3.7932439763834954e-14
  outer loop
    vertex 66.83015818801829 -32.8512865638376 1.9404189366412083e-11
    vertex 67.86543436842253 -32.714989868993875 20.000000000019703
    vertex 66.83015818801245 -32.8512865638376 20.0000000000194
  endloop
endfacet
facet normal 0.13052619222005216 -0.9914448613738104 3.7932439763834954e-14
  outer loop
    vertex 67.86543436842253 -32.714989868993875 20.000000000019703
    vertex 66.83015818801829 -32.8512865638376 1.9404189366412083e-11
    vertex 67.86543436842837 -32.714989868993875 1.9705925780044707e-11
  endloop
endfacet
facet normal 0.38268343236508756 -0.9238795325112878 1.1119917917862379e-13
  outer loop
    vertex 65.86543436842835 -33.25088825385612 1.912501268463984e-11
    vertex 66.83015818801245 -32.8512865638376 20.0000000000194
    vertex 65.86543436842251 -33.25088825385612 20.00000000001912
  endloop
endfacet
facet normal 0.38268343236508756 -0.9238795325112878 1.1119917917862379e-13
  outer loop
    vertex 66.83015818801245 -32.8512865638376 20.0000000000194
    vertex 65.86543436842835 -33.25088825385612 1.912501268463984e-11
    vertex 66.83015818801829 -32.8512865638376 1.9404189366412083e-11
  endloop
endfacet
facet normal 0.6087614290087213 -0.7933533402912347 1.7688787829772336e-13
  outer loop
    vertex 65.03700724367633 -33.886562744247684 20.00000000001888
    vertex 65.86543436842835 -33.25088825385612 1.912501268463984e-11
    vertex 65.86543436842251 -33.25088825385612 20.00000000001912
  endloop
endfacet
facet normal 0.6087614290087213 -0.7933533402912347 1.7688787829772336e-13
  outer loop
    vertex 65.86543436842835 -33.25088825385612 1.912501268463984e-11
    vertex 65.03700724367633 -33.886562744247684 20.00000000001888
    vertex 65.03700724368217 -33.886562744247684 1.8882495567140722e-11
  endloop
endfacet
facet normal 0.7933533402912363 -0.6087614290087194 2.3171723869164164e-13
  outer loop
    vertex 64.67689274598386 -34.355873094776044 1.8778156807286448e-11
    vertex 64.40133275328476 -34.714989868993875 20.000000000018698
    vertex 64.4013327532906 -34.714989868993875 1.869919774577511e-11
  endloop
endfacet
facet normal 0.7933533402912363 -0.6087614290087194 2.3171723869164164e-13
  outer loop
    vertex 64.40133275328476 -34.714989868993875 20.000000000018698
    vertex 64.67689274598386 -34.355873094776044 1.8778156807286448e-11
    vertex 64.67689274597802 -34.355873094776044 20.000000000018776
  endloop
endfacet
facet normal 0.7933533402912363 -0.6087614290087194 2.3171723869164164e-13
  outer loop
    vertex 64.67689274597802 -34.355873094776044 20.000000000018776
    vertex 64.67689274598386 -34.355873094776044 1.8778156807286448e-11
    vertex 65.03700724368217 -33.886562744247684 1.8882495567140722e-11
  endloop
endfacet
facet normal 0.7933533402912363 -0.6087614290087194 2.3171723869164164e-13
  outer loop
    vertex 64.67689274597802 -34.355873094776044 20.000000000018776
    vertex 65.03700724368217 -33.886562744247684 1.8882495567140722e-11
    vertex 65.03700724367633 -33.886562744247684 20.00000000001888
  endloop
endfacet
facet normal 0.9238795325112863 -0.3826834323650914 2.684463526908817e-13
  outer loop
    vertex 64.4013327532906 -34.714989868993875 1.869919774577511e-11
    vertex 64.00173106326625 -35.67971368858379 20.00000000001858
    vertex 64.00173106327209 -35.67971368858379 1.8583579119990645e-11
  endloop
endfacet
facet normal 0.9238795325112863 -0.3826834323650914 2.684463526908817e-13
  outer loop
    vertex 64.00173106326625 -35.67971368858379 20.00000000001858
    vertex 64.4013327532906 -34.714989868993875 1.869919774577511e-11
    vertex 64.40133275328476 -34.714989868993875 20.000000000018698
  endloop
endfacet
facet normal 0.9914448613738105 -0.13052619222005143 2.880765692425811e-13
  outer loop
    vertex 64.00173106327209 -35.67971368858379 1.8583579119990645e-11
    vertex 63.86543436842252 -36.714989868993875 20.00000000001854
    vertex 63.86543436842836 -36.714989868993875 1.8544099589234974e-11
  endloop
endfacet
facet normal 0.9914448613738105 -0.13052619222005143 2.880765692425811e-13
  outer loop
    vertex 63.86543436842252 -36.714989868993875 20.00000000001854
    vertex 64.00173106327209 -35.67971368858379 1.8583579119990645e-11
    vertex 64.00173106326625 -35.67971368858379 20.00000000001858
  endloop
endfacet
facet normal 0.9914448613738105 0.13052619222005143 2.880748436694384e-13
  outer loop
    vertex 63.86543436842836 -36.714989868993875 1.8544099589234974e-11
    vertex 64.00173106326625 -37.75026604940396 20.00000000001858
    vertex 64.00173106327209 -37.75026604940396 1.8583579119990645e-11
  endloop
endfacet
facet normal 0.9914448613738105 0.13052619222005143 2.880748436694384e-13
  outer loop
    vertex 64.00173106326625 -37.75026604940396 20.00000000001858
    vertex 63.86543436842836 -36.714989868993875 1.8544099589234974e-11
    vertex 63.86543436842252 -36.714989868993875 20.00000000001854
  endloop
endfacet
facet normal 0.9238795325112863 0.3826834323650914 2.684412935664117e-13
  outer loop
    vertex 64.00173106327209 -37.75026604940396 1.8583579119990645e-11
    vertex 64.40133275328476 -38.714989868993875 20.000000000018698
    vertex 64.4013327532906 -38.714989868993875 1.869919774577511e-11
  endloop
endfacet
facet normal 0.9238795325112863 0.3826834323650914 2.684412935664117e-13
  outer loop
    vertex 64.40133275328476 -38.714989868993875 20.000000000018698
    vertex 64.00173106327209 -37.75026604940396 1.8583579119990645e-11
    vertex 64.00173106326625 -37.75026604940396 20.00000000001858
  endloop
endfacet
facet normal 0.7933533402912372 0.6087614290087179 2.305139129270476e-13
  outer loop
    vertex 64.4013327532906 -38.714989868993875 1.869919774577511e-11
    vertex 65.03700724367633 -39.54341699374007 20.00000000001888
    vertex 65.03700724368217 -39.54341699374007 1.8882495567140722e-11
  endloop
endfacet
facet normal 0.7933533402912372 0.6087614290087179 2.305139129270476e-13
  outer loop
    vertex 65.03700724367633 -39.54341699374007 20.00000000001888
    vertex 64.4013327532906 -38.714989868993875 1.869919774577511e-11
    vertex 64.40133275328476 -38.714989868993875 20.000000000018698
  endloop
endfacet
facet normal 0.6087614290087162 0.7933533402912388 1.7687739006395542e-13
  outer loop
    vertex 65.86543436842837 -40.17909148413163 1.912501268463984e-11
    vertex 65.03700724367633 -39.54341699374007 20.00000000001888
    vertex 65.86543436842253 -40.17909148413163 20.00000000001912
  endloop
endfacet
facet normal 0.6087614290087162 0.7933533402912388 1.7687739006395542e-13
  outer loop
    vertex 65.03700724367633 -39.54341699374007 20.00000000001888
    vertex 65.86543436842837 -40.17909148413163 1.912501268463984e-11
    vertex 65.03700724368217 -39.54341699374007 1.8882495567140722e-11
  endloop
endfacet
facet normal 0.6191072888222031 0.78530641467342 1.8052297047126806e-13
  outer loop
    vertex 72.91562976232204 -45.737211568755505 2.1172308350969613e-11
    vertex 65.86543436842253 -40.17909148413163 20.00000000001912
    vertex 72.9156297623162 -45.737211568755505 20.00000000002117
  endloop
endfacet
facet normal 0.6191072888222031 0.78530641467342 1.8052297047126806e-13
  outer loop
    vertex 65.86543436842253 -40.17909148413163 20.00000000001912
    vertex 72.91562976232204 -45.737211568755505 2.1172308350969613e-11
    vertex 65.86543436842837 -40.17909148413163 1.912501268463984e-11
  endloop
endfacet
facet normal 0.8038906030837362 -0.5947771837198086 2.3417708818181756e-13
  outer loop
    vertex 86.004922280088 -36.45245854324634 2.497362316944418e-11
    vertex 81.72331217506336 -42.239409058003204 20.000000000023732
    vertex 81.7233121750692 -42.239409058003204 2.3735657883605653e-11
  endloop
endfacet
facet normal 0.8038906030837362 -0.5947771837198086 2.3417708818181756e-13
  outer loop
    vertex 81.72331217506336 -42.239409058003204 20.000000000023732
    vertex 86.004922280088 -36.45245854324634 2.497362316944418e-11
    vertex 86.00492228008217 -36.45245854324634 20.000000000024972
  endloop
endfacet
facet normal 0.803890603083737 -0.5947771837198074 2.3485898221382903e-13
  outer loop
    vertex 76.93508277774073 -48.71109748735458 2.2351054340674636e-11
    vertex 73.0090547469274 -54.017449391559886 20.000000000021206
    vertex 73.00905474693327 -54.017449391559886 2.1208967915242737e-11
  endloop
endfacet
facet normal 0.803890603083737 -0.5947771837198074 2.3485898221382903e-13
  outer loop
    vertex 73.0090547469274 -54.017449391559886 20.000000000021206
    vertex 76.93508277774073 -48.71109748735458 2.2351054340674636e-11
    vertex 76.93508277773489 -48.71109748735458 20.000000000022347
  endloop
endfacet
facet normal 0.5947771837198074 0.803890603083737 1.734278281245009e-13
  outer loop
    vertex 76.93508277774073 -48.71109748735458 2.2351054340674636e-11
    vertex 72.9156297623162 -45.737211568755505 20.00000000002117
    vertex 76.93508277773489 -48.71109748735458 20.000000000022347
  endloop
endfacet
facet normal 0.5947771837198074 0.803890603083737 1.734278281245009e-13
  outer loop
    vertex 72.9156297623162 -45.737211568755505 20.00000000002117
    vertex 76.93508277774073 -48.71109748735458 2.2351054340674636e-11
    vertex 72.91562976232204 -45.737211568755505 2.1172308350969613e-11
  endloop
endfacet
facet normal -0.5947771837198087 -0.8038906030837362 -1.7342782812450127e-13
  outer loop
    vertex 77.70385915964468 -39.26552313940416 20.000000000022563
    vertex 81.7233121750692 -42.239409058003204 2.3735657883605653e-11
    vertex 81.72331217506336 -42.239409058003204 20.000000000023732
  endloop
endfacet
facet normal -0.5947771837198087 -0.8038906030837362 -1.7342782812450127e-13
  outer loop
    vertex 81.7233121750692 -42.239409058003204 2.3735657883605653e-11
    vertex 77.70385915964468 -39.26552313940416 20.000000000022563
    vertex 77.70385915965052 -39.26552313940416 2.2568191759830823e-11
  endloop
endfacet
facet normal -0.6087614290087165 -0.7933533402912385 -1.7749608082304229e-13
  outer loop
    vertex 69.86543436842251 -33.25088825385612 20.000000000020282
    vertex 77.70385915965052 -39.26552313940416 2.2568191759830823e-11
    vertex 77.70385915964468 -39.26552313940416 20.000000000022563
  endloop
endfacet
facet normal -0.6087614290087165 -0.7933533402912385 -1.7749608082304229e-13
  outer loop
    vertex 77.70385915965052 -39.26552313940416 2.2568191759830823e-11
    vertex 69.86543436842251 -33.25088825385612 20.000000000020282
    vertex 69.86543436842837 -33.25088825385612 2.0286838875449573e-11
  endloop
endfacet
endsolid suportFilament
