solid suportFilamentInverdit
facet normal 3.405194225370102e-13 -0.793353340291231 0.6087614290087262
  outer loop
    vertex 53.49865255540258 43.178624979905806 11.151203005557422
    vertex 48.498652555402586 43.178624979905806 11.151203005560214
    vertex 53.49865255540229 42.78132842341107 10.633436052591053
  endloop
endfacet
facet normal 3.405194225370102e-13 -0.793353340291231 0.6087614290087262
  outer loop
    vertex 48.498652555402224 42.78132842341107 10.633436052593845
    vertex 53.49865255540229 42.78132842341107 10.633436052591053
    vertex 48.498652555402586 43.178624979905806 11.151203005560214
  endloop
endfacet
facet normal 2.140594577675943e-13 -0.9238795325112961 0.3826834323650675
  outer loop
    vertex 53.49865255540294 43.428376036167364 11.754155392801119
    vertex 48.49865255540293 43.428376036167364 11.754155392803913
    vertex 53.49865255540258 43.178624979905806 11.151203005557422
  endloop
endfacet
facet normal 2.140594577675943e-13 -0.9238795325112961 0.3826834323650675
  outer loop
    vertex 48.498652555402586 43.178624979905806 11.151203005560214
    vertex 53.49865255540258 43.178624979905806 11.151203005557422
    vertex 48.49865255540293 43.428376036167364 11.754155392803913
  endloop
endfacet
facet normal -2.1405945776759386e-13 -0.9238795325112964 -0.38268343236506674
  outer loop
    vertex 48.498652555403964 43.178624979905806 13.651203005560216
    vertex 48.498652555403645 43.428376036167364 13.048250618316517
    vertex 53.49865255540398 43.178624979905806 13.651203005557417
  endloop
endfacet
facet normal -2.1405945776759386e-13 -0.9238795325112964 -0.38268343236506674
  outer loop
    vertex 53.49865255540368 43.428376036167364 13.048250618313723
    vertex 53.49865255540398 43.178624979905806 13.651203005557417
    vertex 48.498652555403645 43.428376036167364 13.048250618316517
  endloop
endfacet
facet normal 7.301169470132643e-14 -0.9914448613738099 0.13052619222005618
  outer loop
    vertex 53.498652555403275 43.51356147044469 12.401203005557422
    vertex 48.49865255540326 43.51356147044469 12.401203005560214
    vertex 53.49865255540294 43.428376036167364 11.754155392801119
  endloop
endfacet
facet normal 7.301169470132643e-14 -0.9914448613738099 0.13052619222005618
  outer loop
    vertex 48.49865255540293 43.428376036167364 11.754155392803913
    vertex 53.49865255540294 43.428376036167364 11.754155392801119
    vertex 48.49865255540326 43.51356147044469 12.401203005560214
  endloop
endfacet
facet normal -7.301169470132643e-14 -0.9914448613738099 -0.13052619222005618
  outer loop
    vertex 53.49865255540368 43.428376036167364 13.048250618313723
    vertex 48.498652555403645 43.428376036167364 13.048250618316517
    vertex 53.498652555403275 43.51356147044469 12.401203005557422
  endloop
endfacet
facet normal -7.301169470132643e-14 -0.9914448613738099 -0.13052619222005618
  outer loop
    vertex 48.49865255540326 43.51356147044469 12.401203005560214
    vertex 53.498652555403275 43.51356147044469 12.401203005557422
    vertex 48.498652555403645 43.428376036167364 13.048250618316517
  endloop
endfacet
facet normal -4.4377355139546184e-13 -0.6087614290087235 -0.793353340291233
  outer loop
    vertex 48.49865255540448 42.26356147044471 14.566266515021312
    vertex 48.498652555404256 42.78132842341107 14.168969958526583
    vertex 53.49865255540447 42.26356147044471 14.566266515018514
  endloop
endfacet
facet normal -4.4377355139546184e-13 -0.6087614290087235 -0.793353340291233
  outer loop
    vertex 53.49865255540427 42.78132842341107 14.168969958523787
    vertex 53.49865255540447 42.26356147044471 14.566266515018514
    vertex 48.498652555404256 42.78132842341107 14.168969958526583
  endloop
endfacet
facet normal -5.545788803046141e-13 0.13052619222004957 -0.9914448613738107
  outer loop
    vertex 48.4986525554046 40.36651385768838 14.816017571282885
    vertex 48.49865255540466 41.0135614704447 14.901203005560214
    vertex 53.49865255540461 40.36651385768838 14.816017571280089
  endloop
endfacet
facet normal -5.545788803046141e-13 0.13052619222004957 -0.9914448613738107
  outer loop
    vertex 53.498652555404675 41.0135614704447 14.901203005557417
    vertex 53.49865255540461 40.36651385768838 14.816017571280089
    vertex 48.49865255540466 41.0135614704447 14.901203005560214
  endloop
endfacet
facet normal 3.405194225369981e-13 0.7933533402912477 0.6087614290087046
  outer loop
    vertex 53.49865255540258 38.848497960983615 11.15120300555742
    vertex 53.49865255540229 39.24579451747832 10.633436052591051
    vertex 48.498652555402586 38.848497960983615 11.151203005560212
  endloop
endfacet
facet normal 3.405194225369981e-13 0.7933533402912477 0.6087614290087046
  outer loop
    vertex 48.498652555402224 39.24579451747832 10.633436052593845
    vertex 48.498652555402586 38.848497960983615 11.151203005560212
    vertex 53.49865255540229 39.24579451747832 10.633436052591051
  endloop
endfacet
facet normal 5.167852460967898e-13 0.38268343236507785 0.9238795325112917
  outer loop
    vertex 48.498652555402046 39.76356147044469 10.236139496099119
    vertex 53.49865255540206 39.76356147044469 10.236139496096325
    vertex 48.49865255540193 40.36651385768841 9.986388439837544
  endloop
endfacet
facet normal 5.167852460967898e-13 0.38268343236507785 0.9238795325112917
  outer loop
    vertex 53.498652555401925 40.36651385768841 9.986388439834752
    vertex 48.49865255540193 40.36651385768841 9.986388439837544
    vertex 53.49865255540206 39.76356147044469 10.236139496096325
  endloop
endfacet
facet normal 5.16785246096787e-13 -0.38268343236509006 0.9238795325112866
  outer loop
    vertex 48.498652555402046 42.26356147044471 10.236139496099119
    vertex 48.49865255540193 41.66060908320101 9.986388439837544
    vertex 53.49865255540206 42.26356147044471 10.236139496096325
  endloop
endfacet
facet normal 5.16785246096787e-13 -0.38268343236509006 0.9238795325112866
  outer loop
    vertex 53.498652555401925 41.66060908320101 9.986388439834752
    vertex 53.49865255540206 42.26356147044471 10.236139496096325
    vertex 48.49865255540193 41.66060908320101 9.986388439837544
  endloop
endfacet
facet normal -7.301169470132643e-14 0.9914448613738099 -0.13052619222005618
  outer loop
    vertex 53.49865255540368 38.598746904722034 13.048250618313723
    vertex 53.498652555403275 38.5135614704447 12.401203005557422
    vertex 48.498652555403645 38.598746904722034 13.048250618316517
  endloop
endfacet
facet normal -7.301169470132643e-14 0.9914448613738099 -0.13052619222005618
  outer loop
    vertex 48.49865255540326 38.5135614704447 12.401203005560214
    vertex 48.498652555403645 38.598746904722034 13.048250618316517
    vertex 53.498652555403275 38.5135614704447 12.401203005557422
  endloop
endfacet
facet normal -4.4377355139546184e-13 0.6087614290087235 -0.793353340291233
  outer loop
    vertex 48.498652555404256 39.24579451747832 14.168969958526583
    vertex 48.49865255540448 39.76356147044469 14.566266515021312
    vertex 53.49865255540427 39.24579451747832 14.168969958523787
  endloop
endfacet
facet normal -4.4377355139546184e-13 0.6087614290087235 -0.793353340291233
  outer loop
    vertex 53.49865255540447 39.76356147044469 14.566266515018514
    vertex 53.49865255540427 39.24579451747832 14.168969958523787
    vertex 48.49865255540448 39.76356147044469 14.566266515021312
  endloop
endfacet
facet normal 4.4377355139546184e-13 -0.6087614290087235 0.793353340291233
  outer loop
    vertex 48.498652555402224 42.78132842341107 10.633436052593845
    vertex 48.498652555402046 42.26356147044471 10.236139496099119
    vertex 53.49865255540229 42.78132842341107 10.633436052591053
  endloop
endfacet
facet normal 4.4377355139546184e-13 -0.6087614290087235 0.793353340291233
  outer loop
    vertex 53.49865255540206 42.26356147044471 10.236139496096325
    vertex 53.49865255540229 42.78132842341107 10.633436052591053
    vertex 48.498652555402046 42.26356147044471 10.236139496099119
  endloop
endfacet
facet normal -3.4051942253700966e-13 0.7933533402912317 -0.6087614290087252
  outer loop
    vertex 48.498652555404256 39.24579451747832 14.168969958526583
    vertex 53.49865255540427 39.24579451747832 14.168969958523787
    vertex 48.498652555403964 38.84849796098359 13.651203005560214
  endloop
endfacet
facet normal -3.4051942253700966e-13 0.7933533402912317 -0.6087614290087252
  outer loop
    vertex 53.49865255540398 38.84849796098359 13.651203005557417
    vertex 48.498652555403964 38.84849796098359 13.651203005560214
    vertex 53.49865255540427 39.24579451747832 14.168969958523787
  endloop
endfacet
facet normal -3.4051942253701083e-13 -0.7933533402912302 -0.6087614290087273
  outer loop
    vertex 48.498652555404256 42.78132842341107 14.168969958526583
    vertex 48.498652555403964 43.178624979905806 13.651203005560216
    vertex 53.49865255540427 42.78132842341107 14.168969958523787
  endloop
endfacet
facet normal -3.4051942253701083e-13 -0.7933533402912302 -0.6087614290087273
  outer loop
    vertex 53.49865255540398 43.178624979905806 13.651203005557417
    vertex 53.49865255540427 42.78132842341107 14.168969958523787
    vertex 48.498652555403964 43.178624979905806 13.651203005560216
  endloop
endfacet
facet normal -5.545788803046141e-13 -0.13052619222004957 -0.9914448613738107
  outer loop
    vertex 48.49865255540466 41.0135614704447 14.901203005560214
    vertex 48.4986525554046 41.66060908320101 14.816017571282885
    vertex 53.498652555404675 41.0135614704447 14.901203005557417
  endloop
endfacet
facet normal -5.545788803046141e-13 -0.13052619222004957 -0.9914448613738107
  outer loop
    vertex 53.49865255540461 41.66060908320101 14.816017571280089
    vertex 53.498652555404675 41.0135614704447 14.901203005557417
    vertex 48.4986525554046 41.66060908320101 14.816017571282885
  endloop
endfacet
facet normal 2.1405945776761077e-13 0.9238795325112837 0.38268343236509694
  outer loop
    vertex 53.49865255540294 38.598746904722034 11.754155392801117
    vertex 53.49865255540258 38.848497960983615 11.15120300555742
    vertex 48.49865255540293 38.598746904722034 11.754155392803911
  endloop
endfacet
facet normal 2.1405945776761077e-13 0.9238795325112837 0.38268343236509694
  outer loop
    vertex 48.498652555402586 38.848497960983615 11.151203005560212
    vertex 48.49865255540293 38.598746904722034 11.754155392803911
    vertex 53.49865255540258 38.848497960983615 11.15120300555742
  endloop
endfacet
facet normal 5.545788803046137e-13 0.13052619222005404 0.9914448613738102
  outer loop
    vertex 48.49865255540189 41.0135614704447 9.901203005560216
    vertex 48.49865255540193 40.36651385768841 9.986388439837544
    vertex 53.498652555401904 41.0135614704447 9.901203005557422
  endloop
endfacet
facet normal 5.545788803046137e-13 0.13052619222005404 0.9914448613738102
  outer loop
    vertex 53.498652555401925 40.36651385768841 9.986388439834752
    vertex 53.498652555401904 41.0135614704447 9.901203005557422
    vertex 48.49865255540193 40.36651385768841 9.986388439837544
  endloop
endfacet
facet normal -5.16785246096787e-13 0.38268343236509006 -0.9238795325112866
  outer loop
    vertex 48.4986525554046 40.36651385768838 14.816017571282885
    vertex 53.49865255540461 40.36651385768838 14.816017571280089
    vertex 48.49865255540448 39.76356147044469 14.566266515021312
  endloop
endfacet
facet normal -5.16785246096787e-13 0.38268343236509006 -0.9238795325112866
  outer loop
    vertex 53.49865255540447 39.76356147044469 14.566266515018514
    vertex 48.49865255540448 39.76356147044469 14.566266515021312
    vertex 53.49865255540461 40.36651385768838 14.816017571280089
  endloop
endfacet
facet normal -2.140594577675947e-13 0.9238795325112957 -0.38268343236506824
  outer loop
    vertex 48.498652555403964 38.84849796098359 13.651203005560214
    vertex 53.49865255540398 38.84849796098359 13.651203005557417
    vertex 48.498652555403645 38.598746904722034 13.048250618316517
  endloop
endfacet
facet normal -2.140594577675947e-13 0.9238795325112957 -0.38268343236506824
  outer loop
    vertex 53.49865255540368 38.598746904722034 13.048250618313723
    vertex 48.498652555403645 38.598746904722034 13.048250618316517
    vertex 53.49865255540398 38.84849796098359 13.651203005557417
  endloop
endfacet
facet normal 4.4377355139546244e-13 0.6087614290087223 0.7933533402912339
  outer loop
    vertex 48.498652555402224 39.24579451747832 10.633436052593845
    vertex 53.49865255540229 39.24579451747832 10.633436052591051
    vertex 48.498652555402046 39.76356147044469 10.236139496099119
  endloop
endfacet
facet normal 4.4377355139546244e-13 0.6087614290087223 0.7933533402912339
  outer loop
    vertex 53.49865255540206 39.76356147044469 10.236139496096325
    vertex 48.498652555402046 39.76356147044469 10.236139496099119
    vertex 53.49865255540229 39.24579451747832 10.633436052591051
  endloop
endfacet
facet normal -5.16785246096787e-13 -0.38268343236509006 -0.9238795325112866
  outer loop
    vertex 48.4986525554046 41.66060908320101 14.816017571282885
    vertex 48.49865255540448 42.26356147044471 14.566266515021312
    vertex 53.49865255540461 41.66060908320101 14.816017571280089
  endloop
endfacet
facet normal -5.16785246096787e-13 -0.38268343236509006 -0.9238795325112866
  outer loop
    vertex 53.49865255540447 42.26356147044471 14.566266515018514
    vertex 53.49865255540461 41.66060908320101 14.816017571280089
    vertex 48.49865255540448 42.26356147044471 14.566266515021312
  endloop
endfacet
facet normal 7.301169470132628e-14 0.9914448613738098 0.1305261922200559
  outer loop
    vertex 53.498652555403275 38.5135614704447 12.401203005557422
    vertex 53.49865255540294 38.598746904722034 11.754155392801117
    vertex 48.49865255540326 38.5135614704447 12.401203005560214
  endloop
endfacet
facet normal 7.301169470132628e-14 0.9914448613738098 0.1305261922200559
  outer loop
    vertex 48.49865255540293 38.598746904722034 11.754155392803911
    vertex 48.49865255540326 38.5135614704447 12.401203005560214
    vertex 53.49865255540294 38.598746904722034 11.754155392801117
  endloop
endfacet
facet normal 5.545788803046141e-13 -0.13052619222004957 0.9914448613738107
  outer loop
    vertex 48.49865255540193 41.66060908320101 9.986388439837544
    vertex 48.49865255540189 41.0135614704447 9.901203005560216
    vertex 53.498652555401925 41.66060908320101 9.986388439834752
  endloop
endfacet
facet normal 5.545788803046141e-13 -0.13052619222004957 0.9914448613738107
  outer loop
    vertex 53.498652555401904 41.0135614704447 9.901203005557422
    vertex 53.498652555401925 41.66060908320101 9.986388439834752
    vertex 48.49865255540189 41.0135614704447 9.901203005560216
  endloop
endfacet
facet normal 0.0 1.0 0.0
  outer loop
    vertex 53.49865255540756 51.0135614704447 19.99999999996499
    vertex 53.498652555396376 51.0135614704447 -3.502116374676234e-11
    vertex 48.498652555407524 51.0135614704447 19.99999999996778
  endloop
endfacet
facet normal 0.0 1.0 0.0
  outer loop
    vertex 48.49865255539913 51.0135614704447 4.999999999967775
    vertex 48.498652555407524 51.0135614704447 19.99999999996778
    vertex 53.498652555396376 51.0135614704447 -3.502116374676234e-11
  endloop
endfacet
facet normal 0.0 1.0 0.0
  outer loop
    vertex 48.49865255539634 51.0135614704447 -3.2223756996074825e-11
    vertex 48.49865255539913 51.0135614704447 4.999999999967775
    vertex 53.498652555396376 51.0135614704447 -3.502116374676234e-11
  endloop
endfacet
facet normal 1.0 0.0 -5.593643196013476e-13
  outer loop
    vertex 53.498652555396376 31.013561470444692 -3.502116374676234e-11
    vertex 53.49865255540398 38.84849796098359 13.651203005557417
    vertex 53.49865255540756 31.013561470444692 19.99999999996499
  endloop
endfacet
facet normal 1.0 0.0 -5.593643196013476e-13
  outer loop
    vertex 53.49865255540427 39.24579451747832 14.168969958523787
    vertex 53.49865255540756 31.013561470444692 19.99999999996499
    vertex 53.49865255540398 38.84849796098359 13.651203005557417
  endloop
endfacet
facet normal 1.0 0.0 -5.593643196013476e-13
  outer loop
    vertex 53.49865255540447 39.76356147044469 14.566266515018514
    vertex 53.49865255540756 31.013561470444692 19.99999999996499
    vertex 53.49865255540427 39.24579451747832 14.168969958523787
  endloop
endfacet
facet normal 1.0 0.0 -5.593643196013476e-13
  outer loop
    vertex 53.49865255540756 51.0135614704447 19.99999999996499
    vertex 53.49865255540756 31.013561470444692 19.99999999996499
    vertex 53.49865255540447 39.76356147044469 14.566266515018514
  endloop
endfacet
facet normal 1.0 0.0 -5.593643196013476e-13
  outer loop
    vertex 53.49865255540368 38.598746904722034 13.048250618313723
    vertex 53.49865255540398 38.84849796098359 13.651203005557417
    vertex 53.498652555396376 31.013561470444692 -3.502116374676234e-11
  endloop
endfacet
facet normal 1.0 0.0 -5.593643196013476e-13
  outer loop
    vertex 53.498652555403275 38.5135614704447 12.401203005557422
    vertex 53.49865255540368 38.598746904722034 13.048250618313723
    vertex 53.498652555396376 31.013561470444692 -3.502116374676234e-11
  endloop
endfacet
facet normal 1.0 0.0 -5.593643196013476e-13
  outer loop
    vertex 53.49865255540461 40.36651385768838 14.816017571280089
    vertex 53.49865255540756 51.0135614704447 19.99999999996499
    vertex 53.49865255540447 39.76356147044469 14.566266515018514
  endloop
endfacet
facet normal 1.0 0.0 -5.593643196013476e-13
  outer loop
    vertex 53.498652555404675 41.0135614704447 14.901203005557417
    vertex 53.49865255540756 51.0135614704447 19.99999999996499
    vertex 53.49865255540461 40.36651385768838 14.816017571280089
  endloop
endfacet
facet normal 1.0 0.0 -5.593643196013476e-13
  outer loop
    vertex 53.49865255540461 41.66060908320101 14.816017571280089
    vertex 53.49865255540756 51.0135614704447 19.99999999996499
    vertex 53.498652555404675 41.0135614704447 14.901203005557417
  endloop
endfacet
facet normal 1.0 0.0 -5.593643196013476e-13
  outer loop
    vertex 53.49865255540447 42.26356147044471 14.566266515018514
    vertex 53.49865255540756 51.0135614704447 19.99999999996499
    vertex 53.49865255540461 41.66060908320101 14.816017571280089
  endloop
endfacet
facet normal 1.0 0.0 -5.593643196013476e-13
  outer loop
    vertex 53.49865255540427 42.78132842341107 14.168969958523787
    vertex 53.49865255540756 51.0135614704447 19.99999999996499
    vertex 53.49865255540447 42.26356147044471 14.566266515018514
  endloop
endfacet
facet normal 1.0 0.0 -5.593643196013476e-13
  outer loop
    vertex 53.49865255540398 43.178624979905806 13.651203005557417
    vertex 53.49865255540756 51.0135614704447 19.99999999996499
    vertex 53.49865255540427 42.78132842341107 14.168969958523787
  endloop
endfacet
facet normal 1.0 0.0 -5.593643196013476e-13
  outer loop
    vertex 53.49865255540368 43.428376036167364 13.048250618313723
    vertex 53.49865255540756 51.0135614704447 19.99999999996499
    vertex 53.49865255540398 43.178624979905806 13.651203005557417
  endloop
endfacet
facet normal 1.0 0.0 -5.593643196013476e-13
  outer loop
    vertex 53.498652555403275 43.51356147044469 12.401203005557422
    vertex 53.49865255540756 51.0135614704447 19.99999999996499
    vertex 53.49865255540368 43.428376036167364 13.048250618313723
  endloop
endfacet
facet normal 1.0 0.0 -5.593643196013476e-13
  outer loop
    vertex 53.498652555396376 51.0135614704447 -3.502116374676234e-11
    vertex 53.49865255540229 39.24579451747832 10.633436052591051
    vertex 53.498652555396376 31.013561470444692 -3.502116374676234e-11
  endloop
endfacet
facet normal 1.0 0.0 -5.593643196013476e-13
  outer loop
    vertex 53.49865255540258 38.848497960983615 11.15120300555742
    vertex 53.498652555396376 31.013561470444692 -3.502116374676234e-11
    vertex 53.49865255540229 39.24579451747832 10.633436052591051
  endloop
endfacet
facet normal 1.0 0.0 -5.593643196013476e-13
  outer loop
    vertex 53.49865255540294 38.598746904722034 11.754155392801117
    vertex 53.498652555396376 31.013561470444692 -3.502116374676234e-11
    vertex 53.49865255540258 38.848497960983615 11.15120300555742
  endloop
endfacet
facet normal 1.0 0.0 -5.593643196013476e-13
  outer loop
    vertex 53.498652555403275 38.5135614704447 12.401203005557422
    vertex 53.498652555396376 31.013561470444692 -3.502116374676234e-11
    vertex 53.49865255540294 38.598746904722034 11.754155392801117
  endloop
endfacet
facet normal 1.0 0.0 -5.593643196013476e-13
  outer loop
    vertex 53.49865255540206 39.76356147044469 10.236139496096325
    vertex 53.49865255540229 39.24579451747832 10.633436052591051
    vertex 53.498652555396376 51.0135614704447 -3.502116374676234e-11
  endloop
endfacet
facet normal 1.0 0.0 -5.593643196013476e-13
  outer loop
    vertex 53.498652555401925 40.36651385768841 9.986388439834752
    vertex 53.49865255540206 39.76356147044469 10.236139496096325
    vertex 53.498652555396376 51.0135614704447 -3.502116374676234e-11
  endloop
endfacet
facet normal 1.0 0.0 -5.593643196013476e-13
  outer loop
    vertex 53.498652555401904 41.0135614704447 9.901203005557422
    vertex 53.498652555401925 40.36651385768841 9.986388439834752
    vertex 53.498652555396376 51.0135614704447 -3.502116374676234e-11
  endloop
endfacet
facet normal 1.0 0.0 -5.593643196013476e-13
  outer loop
    vertex 53.498652555401925 41.66060908320101 9.986388439834752
    vertex 53.498652555401904 41.0135614704447 9.901203005557422
    vertex 53.498652555396376 51.0135614704447 -3.502116374676234e-11
  endloop
endfacet
facet normal 1.0 0.0 -5.593643196013476e-13
  outer loop
    vertex 53.49865255540206 42.26356147044471 10.236139496096325
    vertex 53.498652555401925 41.66060908320101 9.986388439834752
    vertex 53.498652555396376 51.0135614704447 -3.502116374676234e-11
  endloop
endfacet
facet normal 1.0 0.0 -5.593643196013476e-13
  outer loop
    vertex 53.49865255540229 42.78132842341107 10.633436052591053
    vertex 53.49865255540206 42.26356147044471 10.236139496096325
    vertex 53.498652555396376 51.0135614704447 -3.502116374676234e-11
  endloop
endfacet
facet normal 1.0 0.0 -5.593643196013476e-13
  outer loop
    vertex 53.49865255540258 43.178624979905806 11.151203005557422
    vertex 53.49865255540229 42.78132842341107 10.633436052591053
    vertex 53.498652555396376 51.0135614704447 -3.502116374676234e-11
  endloop
endfacet
facet normal 1.0 0.0 -5.593643196013476e-13
  outer loop
    vertex 53.49865255540294 43.428376036167364 11.754155392801119
    vertex 53.49865255540258 43.178624979905806 11.151203005557422
    vertex 53.498652555396376 51.0135614704447 -3.502116374676234e-11
  endloop
endfacet
facet normal 1.0 0.0 -5.593643196013476e-13
  outer loop
    vertex 53.498652555403275 43.51356147044469 12.401203005557422
    vertex 53.49865255540294 43.428376036167364 11.754155392801119
    vertex 53.498652555396376 51.0135614704447 -3.502116374676234e-11
  endloop
endfacet
facet normal 1.0 0.0 -5.593643196013476e-13
  outer loop
    vertex 53.49865255540756 51.0135614704447 19.99999999996499
    vertex 53.498652555403275 43.51356147044469 12.401203005557422
    vertex 53.498652555396376 51.0135614704447 -3.502116374676234e-11
  endloop
endfacet
facet normal -1.0 0.0 5.592505680006162e-13
  outer loop
    vertex 48.498652555407524 26.013561470444703 19.99999999996778
    vertex 48.498652555402046 39.76356147044469 10.236139496099119
    vertex 48.49865255539913 26.013561470444703 4.999999999967775
  endloop
endfacet
facet normal -1.0 0.0 5.592505680006162e-13
  outer loop
    vertex 48.49865255539913 51.0135614704447 4.999999999967775
    vertex 48.49865255539913 26.013561470444703 4.999999999967775
    vertex 48.498652555402046 39.76356147044469 10.236139496099119
  endloop
endfacet
facet normal -1.0 0.0 5.592505680006162e-13
  outer loop
    vertex 48.498652555402224 39.24579451747832 10.633436052593845
    vertex 48.498652555402046 39.76356147044469 10.236139496099119
    vertex 48.498652555407524 26.013561470444703 19.99999999996778
  endloop
endfacet
facet normal -1.0 0.0 5.592505680006162e-13
  outer loop
    vertex 48.498652555402586 38.848497960983615 11.151203005560212
    vertex 48.498652555402224 39.24579451747832 10.633436052593845
    vertex 48.498652555407524 26.013561470444703 19.99999999996778
  endloop
endfacet
facet normal -1.0 0.0 5.592505680006162e-13
  outer loop
    vertex 48.49865255540293 38.598746904722034 11.754155392803911
    vertex 48.498652555402586 38.848497960983615 11.151203005560212
    vertex 48.498652555407524 26.013561470444703 19.99999999996778
  endloop
endfacet
facet normal -1.0 0.0 5.592505680006162e-13
  outer loop
    vertex 48.49865255540326 38.5135614704447 12.401203005560214
    vertex 48.49865255540293 38.598746904722034 11.754155392803911
    vertex 48.498652555407524 26.013561470444703 19.99999999996778
  endloop
endfacet
facet normal -1.0 0.0 5.592505680006162e-13
  outer loop
    vertex 48.49865255540193 40.36651385768841 9.986388439837544
    vertex 48.49865255539913 51.0135614704447 4.999999999967775
    vertex 48.498652555402046 39.76356147044469 10.236139496099119
  endloop
endfacet
facet normal -1.0 0.0 5.592505680006162e-13
  outer loop
    vertex 48.49865255540189 41.0135614704447 9.901203005560216
    vertex 48.49865255539913 51.0135614704447 4.999999999967775
    vertex 48.49865255540193 40.36651385768841 9.986388439837544
  endloop
endfacet
facet normal -1.0 0.0 5.592505680006162e-13
  outer loop
    vertex 48.49865255540193 41.66060908320101 9.986388439837544
    vertex 48.49865255539913 51.0135614704447 4.999999999967775
    vertex 48.49865255540189 41.0135614704447 9.901203005560216
  endloop
endfacet
facet normal -1.0 0.0 5.592505680006162e-13
  outer loop
    vertex 48.498652555402046 42.26356147044471 10.236139496099119
    vertex 48.49865255539913 51.0135614704447 4.999999999967775
    vertex 48.49865255540193 41.66060908320101 9.986388439837544
  endloop
endfacet
facet normal -1.0 0.0 5.592505680006162e-13
  outer loop
    vertex 48.498652555402224 42.78132842341107 10.633436052593845
    vertex 48.49865255539913 51.0135614704447 4.999999999967775
    vertex 48.498652555402046 42.26356147044471 10.236139496099119
  endloop
endfacet
facet normal -1.0 0.0 5.592505680006162e-13
  outer loop
    vertex 48.498652555402586 43.178624979905806 11.151203005560214
    vertex 48.49865255539913 51.0135614704447 4.999999999967775
    vertex 48.498652555402224 42.78132842341107 10.633436052593845
  endloop
endfacet
facet normal -1.0 0.0 5.592505680006162e-13
  outer loop
    vertex 48.49865255540293 43.428376036167364 11.754155392803913
    vertex 48.49865255539913 51.0135614704447 4.999999999967775
    vertex 48.498652555402586 43.178624979905806 11.151203005560214
  endloop
endfacet
facet normal -1.0 0.0 5.592505680006162e-13
  outer loop
    vertex 48.49865255540326 43.51356147044469 12.401203005560214
    vertex 48.49865255539913 51.0135614704447 4.999999999967775
    vertex 48.49865255540293 43.428376036167364 11.754155392803913
  endloop
endfacet
facet normal -1.0 0.0 5.592505680006162e-13
  outer loop
    vertex 48.498652555407524 51.0135614704447 19.99999999996778
    vertex 48.49865255540448 39.76356147044469 14.566266515021312
    vertex 48.498652555407524 26.013561470444703 19.99999999996778
  endloop
endfacet
facet normal -1.0 0.0 5.592505680006162e-13
  outer loop
    vertex 48.498652555404256 39.24579451747832 14.168969958526583
    vertex 48.498652555407524 26.013561470444703 19.99999999996778
    vertex 48.49865255540448 39.76356147044469 14.566266515021312
  endloop
endfacet
facet normal -1.0 0.0 5.592505680006162e-13
  outer loop
    vertex 48.498652555403964 38.84849796098359 13.651203005560214
    vertex 48.498652555407524 26.013561470444703 19.99999999996778
    vertex 48.498652555404256 39.24579451747832 14.168969958526583
  endloop
endfacet
facet normal -1.0 0.0 5.592505680006162e-13
  outer loop
    vertex 48.498652555403645 38.598746904722034 13.048250618316517
    vertex 48.498652555407524 26.013561470444703 19.99999999996778
    vertex 48.498652555403964 38.84849796098359 13.651203005560214
  endloop
endfacet
facet normal -1.0 0.0 5.592505680006162e-13
  outer loop
    vertex 48.49865255540326 38.5135614704447 12.401203005560214
    vertex 48.498652555407524 26.013561470444703 19.99999999996778
    vertex 48.498652555403645 38.598746904722034 13.048250618316517
  endloop
endfacet
facet normal -1.0 0.0 5.592505680006162e-13
  outer loop
    vertex 48.4986525554046 40.36651385768838 14.816017571282885
    vertex 48.49865255540448 39.76356147044469 14.566266515021312
    vertex 48.498652555407524 51.0135614704447 19.99999999996778
  endloop
endfacet
facet normal -1.0 0.0 5.592505680006162e-13
  outer loop
    vertex 48.49865255540466 41.0135614704447 14.901203005560214
    vertex 48.4986525554046 40.36651385768838 14.816017571282885
    vertex 48.498652555407524 51.0135614704447 19.99999999996778
  endloop
endfacet
facet normal -1.0 0.0 5.592505680006162e-13
  outer loop
    vertex 48.4986525554046 41.66060908320101 14.816017571282885
    vertex 48.49865255540466 41.0135614704447 14.901203005560214
    vertex 48.498652555407524 51.0135614704447 19.99999999996778
  endloop
endfacet
facet normal -1.0 0.0 5.592505680006162e-13
  outer loop
    vertex 48.49865255540448 42.26356147044471 14.566266515021312
    vertex 48.4986525554046 41.66060908320101 14.816017571282885
    vertex 48.498652555407524 51.0135614704447 19.99999999996778
  endloop
endfacet
facet normal -1.0 0.0 5.592505680006162e-13
  outer loop
    vertex 48.498652555404256 42.78132842341107 14.168969958526583
    vertex 48.49865255540448 42.26356147044471 14.566266515021312
    vertex 48.498652555407524 51.0135614704447 19.99999999996778
  endloop
endfacet
facet normal -1.0 0.0 5.592505680006162e-13
  outer loop
    vertex 48.498652555403964 43.178624979905806 13.651203005560216
    vertex 48.498652555404256 42.78132842341107 14.168969958526583
    vertex 48.498652555407524 51.0135614704447 19.99999999996778
  endloop
endfacet
facet normal -1.0 0.0 5.592505680006162e-13
  outer loop
    vertex 48.498652555403645 43.428376036167364 13.048250618316517
    vertex 48.498652555403964 43.178624979905806 13.651203005560216
    vertex 48.498652555407524 51.0135614704447 19.99999999996778
  endloop
endfacet
facet normal -1.0 0.0 5.592505680006162e-13
  outer loop
    vertex 48.49865255540326 43.51356147044469 12.401203005560214
    vertex 48.498652555403645 43.428376036167364 13.048250618316517
    vertex 48.498652555407524 51.0135614704447 19.99999999996778
  endloop
endfacet
facet normal -1.0 0.0 5.592505680006162e-13
  outer loop
    vertex 48.49865255539913 51.0135614704447 4.999999999967775
    vertex 48.49865255540326 43.51356147044469 12.401203005560214
    vertex 48.498652555407524 51.0135614704447 19.99999999996778
  endloop
endfacet
facet normal 0.0 1.0 0.0
  outer loop
    vertex 53.49865255540756 31.013561470444692 19.99999999996499
    vertex 73.49865255540755 31.013561470444692 19.999999999953804
    vertex 53.498652555396376 31.013561470444692 -3.502116374676234e-11
  endloop
endfacet
facet normal 0.0 1.0 0.0
  outer loop
    vertex 73.49865255539636 31.013561470444692 -4.621361071599494e-11
    vertex 53.498652555396376 31.013561470444692 -3.502116374676234e-11
    vertex 73.49865255540755 31.013561470444692 19.999999999953804
  endloop
endfacet
facet normal -0.5947771837198086 0.8038906030837362 3.3228680604754776e-13
  outer loop
    vertex -37.510319441595044 -37.62217944103902 20.000000000015895
    vertex 48.498652555407524 26.013561470444703 19.99999999996778
    vertex -37.51031944160341 -37.62217944103902 5.000000000015858
  endloop
endfacet
facet normal -0.5947771837198086 0.8038906030837362 3.3228680604754776e-13
  outer loop
    vertex 48.49865255539913 26.013561470444703 4.999999999967775
    vertex -37.51031944160341 -37.62217944103902 5.000000000015858
    vertex 48.498652555407524 26.013561470444703 19.99999999996778
  endloop
endfacet
facet normal 0.5947771837198086 -0.8038906030837362 -3.334327624917286e-13
  outer loop
    vertex -72.51945693845903 -77.0213373126751 20.000000000035488
    vertex -72.51945693847027 -77.0213373126751 3.5480818283417646e-11
    vertex 73.49865255540755 31.013561470444692 19.999999999953804
  endloop
endfacet
facet normal 0.5947771837198086 -0.8038906030837362 -3.334327624917286e-13
  outer loop
    vertex 73.49865255539636 31.013561470444692 -4.621361071599494e-11
    vertex 73.49865255540755 31.013561470444692 19.999999999953804
    vertex -72.51945693847027 -77.0213373126751 3.5480818283417646e-11
  endloop
endfacet
facet normal -0.5947771837198087 0.8038906030837362 3.3329284744014017e-13
  outer loop
    vertex -85.51532447161378 -59.45634646436156 20.000000000042746
    vertex -61.25080265337301 -41.50367492422937 20.00000000002917
    vertex -85.515324471625 -59.45634646436156 4.273941200949593e-11
  endloop
endfacet
facet normal -0.5947771837198087 0.8038906030837362 3.3329284744014017e-13
  outer loop
    vertex -61.25080265338141 -41.50367492422937 5.000000000029144
    vertex -85.515324471625 -59.45634646436156 4.273941200949593e-11
    vertex -61.25080265337301 -41.50367492422937 20.00000000002917
  endloop
endfacet
facet normal -0.5947771837198087 0.8038906030837362 3.3329284744014017e-13
  outer loop
    vertex -61.25080265338422 -41.50367492422937 2.9166913328992906e-11
    vertex -85.515324471625 -59.45634646436156 4.273941200949593e-11
    vertex -61.25080265338141 -41.50367492422937 5.000000000029144
  endloop
endfacet
facet normal 5.591550014228814e-13 1.3965122121432693e-16 1.0
  outer loop
    vertex -61.25080265338141 -41.50367492422937 5.000000000029144
    vertex -37.51031944160341 -37.62217944103902 5.000000000015858
    vertex 48.49865255539913 51.0135614704447 4.999999999967775
  endloop
endfacet
facet normal 5.591550014228814e-13 1.3965122121432693e-16 1.0
  outer loop
    vertex 48.49865255539913 26.013561470444703 4.999999999967775
    vertex 48.49865255539913 51.0135614704447 4.999999999967775
    vertex -37.51031944160341 -37.62217944103902 5.000000000015858
  endloop
endfacet
facet normal -0.6445295826532176 0.7645793726519629 3.6072245228826274e-13
  outer loop
    vertex 48.49865255539913 51.0135614704447 4.999999999967775
    vertex 48.49865255539634 51.0135614704447 -3.2223756996074825e-11
    vertex -61.25080265338141 -41.50367492422937 5.000000000029144
  endloop
endfacet
facet normal -0.6445295826532176 0.7645793726519629 3.6072245228826274e-13
  outer loop
    vertex -61.25080265338422 -41.50367492422937 2.9166913328992906e-11
    vertex -61.25080265338141 -41.50367492422937 5.000000000029144
    vertex 48.49865255539634 51.0135614704447 -3.2223756996074825e-11
  endloop
endfacet
facet normal -0.16135452277635048 0.9868965082416779 9.016224048336281e-14
  outer loop
    vertex -37.510319441595044 -37.62217944103902 20.000000000015895
    vertex -37.51031944160341 -37.62217944103902 5.000000000015858
    vertex -61.25080265337301 -41.50367492422937 20.00000000002917
  endloop
endfacet
facet normal -0.16135452277635048 0.9868965082416779 9.016224048336281e-14
  outer loop
    vertex -61.25080265338141 -41.50367492422937 5.000000000029144
    vertex -61.25080265337301 -41.50367492422937 20.00000000002917
    vertex -37.51031944160341 -37.62217944103902 5.000000000015858
  endloop
endfacet
facet normal 5.593103336238898e-13 4.411148857719769e-17 1.0
  outer loop
    vertex -85.51532447161378 -59.45634646436156 20.000000000042746
    vertex -81.23371436659497 -65.24329697911841 20.000000000040355
    vertex -61.25080265337301 -41.50367492422937 20.00000000002917
  endloop
endfacet
facet normal 5.593103336238898e-13 4.411148857719769e-17 1.0
  outer loop
    vertex -77.21426135117629 -62.26941106051938 20.000000000038103
    vertex -61.25080265337301 -41.50367492422937 20.00000000002917
    vertex -81.23371436659497 -65.24329697911841 20.000000000040355
  endloop
endfacet
facet normal 5.593103336238898e-13 4.411148857719769e-17 1.0
  outer loop
    vertex -69.37583655995414 -56.25477617497133 20.00000000003372
    vertex -61.25080265337301 -41.50367492422937 20.00000000002917
    vertex -77.21426135117629 -62.26941106051938 20.000000000038103
  endloop
endfacet
facet normal 5.593103336238898e-13 4.411148857719769e-17 1.0
  outer loop
    vertex -68.41111274036422 -55.85517448495281 20.000000000033175
    vertex -61.25080265337301 -41.50367492422937 20.00000000002917
    vertex -69.37583655995414 -56.25477617497133 20.00000000003372
  endloop
endfacet
facet normal 5.593103336238898e-13 4.411148857719769e-17 1.0
  outer loop
    vertex -67.37583655995414 -55.71887779010908 20.0000000000326
    vertex -61.25080265337301 -41.50367492422937 20.00000000002917
    vertex -68.41111274036422 -55.85517448495281 20.000000000033175
  endloop
endfacet
facet normal 5.593103336238898e-13 4.411148857719769e-17 1.0
  outer loop
    vertex -66.34056037954406 -55.85517448495281 20.00000000003202
    vertex -61.25080265337301 -41.50367492422937 20.00000000002917
    vertex -67.37583655995414 -55.71887779010908 20.0000000000326
  endloop
endfacet
facet normal 5.593103336238898e-13 4.411148857719769e-17 1.0
  outer loop
    vertex -65.37583655995412 -56.25477617497133 20.00000000003148
    vertex -61.25080265337301 -41.50367492422937 20.00000000002917
    vertex -66.34056037954406 -55.85517448495281 20.00000000003202
  endloop
endfacet
facet normal 5.593103336238898e-13 4.411148857719769e-17 1.0
  outer loop
    vertex -64.54740943520794 -56.890450665362906 20.000000000031015
    vertex -61.25080265337301 -41.50367492422937 20.00000000002917
    vertex -65.37583655995412 -56.25477617497133 20.00000000003148
  endloop
endfacet
facet normal 5.593103336238898e-13 4.411148857719769e-17 1.0
  outer loop
    vertex -64.18729493750963 -57.35976101589126 20.000000000030813
    vertex -61.25080265337301 -41.50367492422937 20.00000000002917
    vertex -64.54740943520794 -56.890450665362906 20.000000000031015
  endloop
endfacet
facet normal 5.593103336238898e-13 4.411148857719769e-17 1.0
  outer loop
    vertex -63.91173494481638 -57.71887779010908 20.00000000003066
    vertex -61.25080265337301 -41.50367492422937 20.00000000002917
    vertex -64.18729493750963 -57.35976101589126 20.000000000030813
  endloop
endfacet
facet normal 5.593103336238898e-13 4.411148857719769e-17 1.0
  outer loop
    vertex -63.51213325479786 -58.68360160969901 20.00000000003044
    vertex -61.25080265337301 -41.50367492422937 20.00000000002917
    vertex -63.91173494481638 -57.71887779010908 20.00000000003066
  endloop
endfacet
facet normal 5.593103336238898e-13 4.411148857719769e-17 1.0
  outer loop
    vertex -63.37583655995413 -59.71887779010909 20.00000000003036
    vertex -61.25080265337301 -41.50367492422937 20.00000000002917
    vertex -63.51213325479786 -58.68360160969901 20.00000000003044
  endloop
endfacet
facet normal 5.593103336238898e-13 4.411148857719769e-17 1.0
  outer loop
    vertex 48.498652555407524 51.0135614704447 19.99999999996778
    vertex 48.498652555407524 26.013561470444703 19.99999999996778
    vertex 53.49865255540756 51.0135614704447 19.99999999996499
  endloop
endfacet
facet normal 5.593103336238898e-13 4.411148857719769e-17 1.0
  outer loop
    vertex -76.4454849692665 -71.71498540846979 20.00000000003768
    vertex -72.51945693845903 -77.0213373126751 20.000000000035488
    vertex -72.42603195384781 -68.74109948987072 20.000000000035424
  endloop
endfacet
facet normal 5.593103336238898e-13 4.411148857719769e-17 1.0
  outer loop
    vertex 73.49865255540755 31.013561470444692 19.999999999953804
    vertex -72.42603195384781 -68.74109948987072 20.000000000035424
    vertex -72.51945693845903 -77.0213373126751 20.000000000035488
  endloop
endfacet
facet normal 5.593103336238898e-13 4.411148857719769e-17 1.0
  outer loop
    vertex -65.37583655995414 -63.18297940524685 20.00000000003148
    vertex -72.42603195384781 -68.74109948987072 20.000000000035424
    vertex 73.49865255540755 31.013561470444692 19.999999999953804
  endloop
endfacet
facet normal 5.593103336238898e-13 4.411148857719769e-17 1.0
  outer loop
    vertex -64.54740943520794 -62.547304914855275 20.000000000031015
    vertex -65.37583655995414 -63.18297940524685 20.00000000003148
    vertex 73.49865255540755 31.013561470444692 19.999999999953804
  endloop
endfacet
facet normal 5.593103336238898e-13 4.411148857719769e-17 1.0
  outer loop
    vertex -63.91173494481638 -61.7188777901091 20.00000000003066
    vertex -64.54740943520794 -62.547304914855275 20.000000000031015
    vertex 73.49865255540755 31.013561470444692 19.999999999953804
  endloop
endfacet
facet normal 5.593103336238898e-13 4.411148857719769e-17 1.0
  outer loop
    vertex -63.51213325479786 -60.75415397051917 20.00000000003044
    vertex -63.91173494481638 -61.7188777901091 20.00000000003066
    vertex 73.49865255540755 31.013561470444692 19.999999999953804
  endloop
endfacet
facet normal 5.593103336238898e-13 4.411148857719769e-17 1.0
  outer loop
    vertex -63.37583655995413 -59.71887779010909 20.00000000003036
    vertex -63.51213325479786 -60.75415397051917 20.00000000003044
    vertex 73.49865255540755 31.013561470444692 19.999999999953804
  endloop
endfacet
facet normal 5.593103336238898e-13 4.411148857719769e-17 1.0
  outer loop
    vertex -37.510319441595044 -37.62217944103902 20.000000000015895
    vertex -63.37583655995413 -59.71887779010909 20.00000000003036
    vertex 73.49865255540755 31.013561470444692 19.999999999953804
  endloop
endfacet
facet normal 5.593103336238898e-13 4.411148857719769e-17 1.0
  outer loop
    vertex -61.25080265337301 -41.50367492422937 20.00000000002917
    vertex -63.37583655995413 -59.71887779010909 20.00000000003036
    vertex -37.510319441595044 -37.62217944103902 20.000000000015895
  endloop
endfacet
facet normal 5.593103336238898e-13 4.411148857719769e-17 1.0
  outer loop
    vertex 48.498652555407524 26.013561470444703 19.99999999996778
    vertex -37.510319441595044 -37.62217944103902 20.000000000015895
    vertex 73.49865255540755 31.013561470444692 19.999999999953804
  endloop
endfacet
facet normal 5.593103336238898e-13 4.411148857719769e-17 1.0
  outer loop
    vertex 53.49865255540756 31.013561470444692 19.99999999996499
    vertex 48.498652555407524 26.013561470444703 19.99999999996778
    vertex 73.49865255540755 31.013561470444692 19.999999999953804
  endloop
endfacet
facet normal 5.593103336238898e-13 4.411148857719769e-17 1.0
  outer loop
    vertex 53.49865255540756 51.0135614704447 19.99999999996499
    vertex 48.498652555407524 26.013561470444703 19.99999999996778
    vertex 53.49865255540756 31.013561470444692 19.99999999996499
  endloop
endfacet
facet normal -5.594184943427133e-13 4.8706821320416824e-17 -1.0
  outer loop
    vertex -85.515324471625 -59.45634646436156 4.273941200949593e-11
    vertex -61.25080265338422 -41.50367492422937 2.9166913328992906e-11
    vertex -81.2337143666062 -65.24329697911841 4.0350900398777864e-11
  endloop
endfacet
facet normal -5.594184943427133e-13 4.8706821320416824e-17 -1.0
  outer loop
    vertex -77.21426135118752 -62.26941106051938 3.810056714570464e-11
    vertex -81.2337143666062 -65.24329697911841 4.0350900398777864e-11
    vertex -61.25080265338422 -41.50367492422937 2.9166913328992906e-11
  endloop
endfacet
facet normal -5.594184943427133e-13 4.8706821320416824e-17 -1.0
  outer loop
    vertex -69.37583655996535 -56.25477617497133 3.3712699298860116e-11
    vertex -77.21426135118752 -62.26941106051938 3.810056714570464e-11
    vertex -61.25080265338422 -41.50367492422937 2.9166913328992906e-11
  endloop
endfacet
facet normal -5.594184943427133e-13 4.8706821320416824e-17 -1.0
  outer loop
    vertex -68.41111274037543 -55.85517448495281 3.317126573421092e-11
    vertex -69.37583655996535 -56.25477617497133 3.3712699298860116e-11
    vertex -61.25080265338422 -41.50367492422937 2.9166913328992906e-11
  endloop
endfacet
facet normal -5.594184943427133e-13 4.8706821320416824e-17 -1.0
  outer loop
    vertex -67.37583655996536 -55.71887779010908 3.25931726052886e-11
    vertex -68.41111274037543 -55.85517448495281 3.317126573421092e-11
    vertex -61.25080265338422 -41.50367492422937 2.9166913328992906e-11
  endloop
endfacet
facet normal -5.594184943427133e-13 4.8706821320416824e-17 -1.0
  outer loop
    vertex -66.34056037955527 -55.85517448495281 3.201507947636628e-11
    vertex -67.37583655996536 -55.71887779010908 3.25931726052886e-11
    vertex -61.25080265338422 -41.50367492422937 2.9166913328992906e-11
  endloop
endfacet
facet normal -5.594184943427133e-13 4.8706821320416824e-17 -1.0
  outer loop
    vertex -65.37583655996534 -56.25477617497133 3.147364591171708e-11
    vertex -66.34056037955527 -55.85517448495281 3.201507947636628e-11
    vertex -61.25080265338422 -41.50367492422937 2.9166913328992906e-11
  endloop
endfacet
facet normal -5.594184943427133e-13 4.8706821320416824e-17 -1.0
  outer loop
    vertex -64.54740943521915 -56.890450665362906 3.101117140857923e-11
    vertex -65.37583655996534 -56.25477617497133 3.147364591171708e-11
    vertex -61.25080265338422 -41.50367492422937 2.9166913328992906e-11
  endloop
endfacet
facet normal -5.594184943427133e-13 4.8706821320416824e-17 -1.0
  outer loop
    vertex -64.18729493752085 -57.35976101589126 3.080813382183578e-11
    vertex -64.54740943521915 -56.890450665362906 3.101117140857923e-11
    vertex -61.25080265338422 -41.50367492422937 2.9166913328992906e-11
  endloop
endfacet
facet normal -5.594184943427133e-13 4.8706821320416824e-17 -1.0
  outer loop
    vertex -63.91173494482759 -57.71887779010908 3.065585563177819e-11
    vertex -64.18729493752085 -57.35976101589126 3.080813382183578e-11
    vertex -61.25080265338422 -41.50367492422937 2.9166913328992906e-11
  endloop
endfacet
facet normal -5.594184943427133e-13 4.8706821320416824e-17 -1.0
  outer loop
    vertex -63.51213325480907 -58.68360160969901 3.043307827965691e-11
    vertex -63.91173494482759 -57.71887779010908 3.065585563177819e-11
    vertex -61.25080265338422 -41.50367492422937 2.9166913328992906e-11
  endloop
endfacet
facet normal -5.594184943427133e-13 4.8706821320416824e-17 -1.0
  outer loop
    vertex -63.37583655996534 -59.71887779010909 3.035693918462812e-11
    vertex -63.51213325480907 -58.68360160969901 3.043307827965691e-11
    vertex -61.25080265338422 -41.50367492422937 2.9166913328992906e-11
  endloop
endfacet
facet normal -5.594184943427133e-13 4.8706821320416824e-17 -1.0
  outer loop
    vertex -76.44548496927773 -71.71498540846979 3.7677572173322456e-11
    vertex -72.42603195385904 -68.74109948987072 3.5418779020801594e-11
    vertex -72.51945693847027 -77.0213373126751 3.5480818283417646e-11
  endloop
endfacet
facet normal -5.594184943427133e-13 4.8706821320416824e-17 -1.0
  outer loop
    vertex 73.49865255539636 31.013561470444692 -4.621361071599494e-11
    vertex -72.51945693847027 -77.0213373126751 3.5480818283417646e-11
    vertex -72.42603195385904 -68.74109948987072 3.5418779020801594e-11
  endloop
endfacet
facet normal -5.594184943427133e-13 4.8706821320416824e-17 -1.0
  outer loop
    vertex -65.37583655996535 -63.18297940524685 3.147364591171708e-11
    vertex 73.49865255539636 31.013561470444692 -4.621361071599494e-11
    vertex -72.42603195385904 -68.74109948987072 3.5418779020801594e-11
  endloop
endfacet
facet normal -5.594184943427133e-13 4.8706821320416824e-17 -1.0
  outer loop
    vertex -64.54740943521915 -62.547304914855275 3.101117140857923e-11
    vertex 73.49865255539636 31.013561470444692 -4.621361071599494e-11
    vertex -65.37583655996535 -63.18297940524685 3.147364591171708e-11
  endloop
endfacet
facet normal -5.594184943427133e-13 4.8706821320416824e-17 -1.0
  outer loop
    vertex -63.91173494482759 -61.7188777901091 3.065585563177819e-11
    vertex 73.49865255539636 31.013561470444692 -4.621361071599494e-11
    vertex -64.54740943521915 -62.547304914855275 3.101117140857923e-11
  endloop
endfacet
facet normal -5.594184943427133e-13 4.8706821320416824e-17 -1.0
  outer loop
    vertex -63.51213325480907 -60.75415397051917 3.043307827965691e-11
    vertex 73.49865255539636 31.013561470444692 -4.621361071599494e-11
    vertex -63.91173494482759 -61.7188777901091 3.065585563177819e-11
  endloop
endfacet
facet normal -5.594184943427133e-13 4.8706821320416824e-17 -1.0
  outer loop
    vertex -63.37583655996534 -59.71887779010909 3.035693918462812e-11
    vertex 73.49865255539636 31.013561470444692 -4.621361071599494e-11
    vertex -63.51213325480907 -60.75415397051917 3.043307827965691e-11
  endloop
endfacet
facet normal -5.594184943427133e-13 4.8706821320416824e-17 -1.0
  outer loop
    vertex -61.25080265338422 -41.50367492422937 2.9166913328992906e-11
    vertex 73.49865255539636 31.013561470444692 -4.621361071599494e-11
    vertex -63.37583655996534 -59.71887779010909 3.035693918462812e-11
  endloop
endfacet
facet normal -5.594184943427133e-13 4.8706821320416824e-17 -1.0
  outer loop
    vertex 53.498652555396376 31.013561470444692 -3.502116374676234e-11
    vertex 73.49865255539636 31.013561470444692 -4.621361071599494e-11
    vertex -61.25080265338422 -41.50367492422937 2.9166913328992906e-11
  endloop
endfacet
facet normal -5.594184943427133e-13 4.8706821320416824e-17 -1.0
  outer loop
    vertex 48.49865255539634 51.0135614704447 -3.2223756996074825e-11
    vertex 53.498652555396376 31.013561470444692 -3.502116374676234e-11
    vertex -61.25080265338422 -41.50367492422937 2.9166913328992906e-11
  endloop
endfacet
facet normal -5.594184943427133e-13 4.8706821320416824e-17 -1.0
  outer loop
    vertex 53.498652555396376 31.013561470444692 -3.502116374676234e-11
    vertex 48.49865255539634 51.0135614704447 -3.2223756996074825e-11
    vertex 53.498652555396376 51.0135614704447 -3.502116374676234e-11
  endloop
endfacet
facet normal 0.38268343236509145 -0.9238795325112861 -2.1412192728881618e-13
  outer loop
    vertex -68.41111274036422 -55.85517448495281 20.000000000033175
    vertex -69.37583655995414 -56.25477617497133 20.00000000003372
    vertex -68.41111274037543 -55.85517448495281 3.317126573421092e-11
  endloop
endfacet
facet normal 0.38268343236509145 -0.9238795325112861 -2.1412192728881618e-13
  outer loop
    vertex -69.37583655996535 -56.25477617497133 3.3712699298860116e-11
    vertex -68.41111274037543 -55.85517448495281 3.317126573421092e-11
    vertex -69.37583655995414 -56.25477617497133 20.00000000003372
  endloop
endfacet
facet normal 0.1305261922200522 -0.9914448613738104 -7.302853132805798e-14
  outer loop
    vertex -67.37583655995414 -55.71887779010908 20.0000000000326
    vertex -68.41111274036422 -55.85517448495281 20.000000000033175
    vertex -67.37583655996536 -55.71887779010908 3.25931726052886e-11
  endloop
endfacet
facet normal 0.1305261922200522 -0.9914448613738104 -7.302853132805798e-14
  outer loop
    vertex -68.41111274037543 -55.85517448495281 3.317126573421092e-11
    vertex -67.37583655996536 -55.71887779010908 3.25931726052886e-11
    vertex -68.41111274036422 -55.85517448495281 20.000000000033175
  endloop
endfacet
facet normal -0.1305261922200522 -0.9914448613738104 7.30416383573532e-14
  outer loop
    vertex -66.34056037954406 -55.85517448495281 20.00000000003202
    vertex -67.37583655995414 -55.71887779010908 20.0000000000326
    vertex -66.34056037955527 -55.85517448495281 3.201507947636628e-11
  endloop
endfacet
facet normal -0.1305261922200522 -0.9914448613738104 7.30416383573532e-14
  outer loop
    vertex -67.37583655996536 -55.71887779010908 3.25931726052886e-11
    vertex -66.34056037955527 -55.85517448495281 3.201507947636628e-11
    vertex -67.37583655995414 -55.71887779010908 20.0000000000326
  endloop
endfacet
facet normal -0.3826834323650876 -0.9238795325112876 2.1413414109572316e-13
  outer loop
    vertex -65.37583655995412 -56.25477617497133 20.00000000003148
    vertex -66.34056037954406 -55.85517448495281 20.00000000003202
    vertex -65.37583655996534 -56.25477617497133 3.147364591171708e-11
  endloop
endfacet
facet normal -0.3826834323650876 -0.9238795325112876 2.1413414109572316e-13
  outer loop
    vertex -66.34056037955527 -55.85517448495281 3.201507947636628e-11
    vertex -65.37583655996534 -56.25477617497133 3.147364591171708e-11
    vertex -66.34056037954406 -55.85517448495281 20.00000000003202
  endloop
endfacet
facet normal -0.6087614290087214 -0.7933533402912345 3.4063375599182264e-13
  outer loop
    vertex -65.37583655995412 -56.25477617497133 20.00000000003148
    vertex -65.37583655996534 -56.25477617497133 3.147364591171708e-11
    vertex -64.54740943520794 -56.890450665362906 20.000000000031015
  endloop
endfacet
facet normal -0.6087614290087214 -0.7933533402912345 3.4063375599182264e-13
  outer loop
    vertex -64.54740943521915 -56.890450665362906 3.101117140857923e-11
    vertex -64.54740943520794 -56.890450665362906 20.000000000031015
    vertex -65.37583655996534 -56.25477617497133 3.147364591171708e-11
  endloop
endfacet
facet normal -0.7933533402912363 -0.6087614290087192 4.4511502120074453e-13
  outer loop
    vertex -63.91173494482759 -57.71887779010908 3.065585563177819e-11
    vertex -63.91173494481638 -57.71887779010908 20.00000000003066
    vertex -64.18729493752085 -57.35976101589126 3.080813382183578e-11
  endloop
endfacet
facet normal -0.7933533402912363 -0.6087614290087192 4.4511502120074453e-13
  outer loop
    vertex -64.18729493750963 -57.35976101589126 20.000000000030813
    vertex -64.18729493752085 -57.35976101589126 3.080813382183578e-11
    vertex -63.91173494481638 -57.71887779010908 20.00000000003066
  endloop
endfacet
facet normal -0.7933533402912363 -0.6087614290087192 4.4511502120074453e-13
  outer loop
    vertex -64.54740943521915 -56.890450665362906 3.101117140857923e-11
    vertex -64.18729493752085 -57.35976101589126 3.080813382183578e-11
    vertex -64.18729493750963 -57.35976101589126 20.000000000030813
  endloop
endfacet
facet normal -0.7933533402912363 -0.6087614290087192 4.4511502120074453e-13
  outer loop
    vertex -64.54740943520794 -56.890450665362906 20.000000000031015
    vertex -64.54740943521915 -56.890450665362906 3.101117140857923e-11
    vertex -64.18729493750963 -57.35976101589126 20.000000000030813
  endloop
endfacet
facet normal -0.9238795325112861 -0.3826834323650911 5.169533337935023e-13
  outer loop
    vertex -63.51213325480907 -58.68360160969901 3.043307827965691e-11
    vertex -63.51213325479786 -58.68360160969901 20.00000000003044
    vertex -63.91173494482759 -57.71887779010908 3.065585563177819e-11
  endloop
endfacet
facet normal -0.9238795325112861 -0.3826834323650911 5.169533337935023e-13
  outer loop
    vertex -63.91173494481638 -57.71887779010908 20.00000000003066
    vertex -63.91173494482759 -57.71887779010908 3.065585563177819e-11
    vertex -63.51213325479786 -58.68360160969901 20.00000000003044
  endloop
endfacet
facet normal -0.9914448613738105 -0.13052619222005138 5.547574088537801e-13
  outer loop
    vertex -63.37583655996534 -59.71887779010909 3.035693918462812e-11
    vertex -63.37583655995413 -59.71887779010909 20.00000000003036
    vertex -63.51213325480907 -58.68360160969901 3.043307827965691e-11
  endloop
endfacet
facet normal -0.9914448613738105 -0.13052619222005138 5.547574088537801e-13
  outer loop
    vertex -63.51213325479786 -58.68360160969901 20.00000000003044
    vertex -63.51213325480907 -58.68360160969901 3.043307827965691e-11
    vertex -63.37583655995413 -59.71887779010909 20.00000000003036
  endloop
endfacet
facet normal -0.9914448613738105 0.13052619222005138 5.547556832806373e-13
  outer loop
    vertex -63.51213325480907 -60.75415397051917 3.043307827965691e-11
    vertex -63.51213325479786 -60.75415397051917 20.00000000003044
    vertex -63.37583655996534 -59.71887779010909 3.035693918462812e-11
  endloop
endfacet
facet normal -0.9914448613738105 0.13052619222005138 5.547556832806373e-13
  outer loop
    vertex -63.37583655995413 -59.71887779010909 20.00000000003036
    vertex -63.37583655996534 -59.71887779010909 3.035693918462812e-11
    vertex -63.51213325479786 -60.75415397051917 20.00000000003044
  endloop
endfacet
facet normal -0.9238795325112861 0.3826834323650911 5.169482746690323e-13
  outer loop
    vertex -63.91173494482759 -61.7188777901091 3.065585563177819e-11
    vertex -63.91173494481638 -61.7188777901091 20.00000000003066
    vertex -63.51213325480907 -60.75415397051917 3.043307827965691e-11
  endloop
endfacet
facet normal -0.9238795325112861 0.3826834323650911 5.169482746690323e-13
  outer loop
    vertex -63.51213325479786 -60.75415397051917 20.00000000003044
    vertex -63.51213325480907 -60.75415397051917 3.043307827965691e-11
    vertex -63.91173494481638 -61.7188777901091 20.00000000003066
  endloop
endfacet
facet normal -0.7933533402912375 0.6087614290087179 4.439116954361509e-13
  outer loop
    vertex -64.54740943521915 -62.547304914855275 3.101117140857923e-11
    vertex -64.54740943520794 -62.547304914855275 20.000000000031015
    vertex -63.91173494482759 -61.7188777901091 3.065585563177819e-11
  endloop
endfacet
facet normal -0.7933533402912375 0.6087614290087179 4.439116954361509e-13
  outer loop
    vertex -63.91173494481638 -61.7188777901091 20.00000000003066
    vertex -63.91173494482759 -61.7188777901091 3.065585563177819e-11
    vertex -64.54740943520794 -62.547304914855275 20.000000000031015
  endloop
endfacet
facet normal -0.6087614290087163 0.7933533402912386 3.4062326775805326e-13
  outer loop
    vertex -65.37583655995414 -63.18297940524685 20.00000000003148
    vertex -64.54740943520794 -62.547304914855275 20.000000000031015
    vertex -65.37583655996535 -63.18297940524685 3.147364591171708e-11
  endloop
endfacet
facet normal -0.6087614290087163 0.7933533402912386 3.4062326775805326e-13
  outer loop
    vertex -64.54740943521915 -62.547304914855275 3.101117140857923e-11
    vertex -65.37583655996535 -63.18297940524685 3.147364591171708e-11
    vertex -64.54740943520794 -62.547304914855275 20.000000000031015
  endloop
endfacet
facet normal -0.6191072888222032 0.7853064146734198 3.470516984166016e-13
  outer loop
    vertex -72.42603195384781 -68.74109948987072 20.000000000035424
    vertex -65.37583655995414 -63.18297940524685 20.00000000003148
    vertex -72.42603195385904 -68.74109948987072 3.5418779020801594e-11
  endloop
endfacet
facet normal -0.6191072888222032 0.7853064146734198 3.470516984166016e-13
  outer loop
    vertex -65.37583655996535 -63.18297940524685 3.147364591171708e-11
    vertex -72.42603195385904 -68.74109948987072 3.5418779020801594e-11
    vertex -65.37583655995414 -63.18297940524685 20.00000000003148
  endloop
endfacet
facet normal -0.8038906030837363 -0.5947771837198085 4.5040920490171453e-13
  outer loop
    vertex -81.2337143666062 -65.24329697911841 4.0350900398777864e-11
    vertex -81.23371436659497 -65.24329697911841 20.000000000040355
    vertex -85.515324471625 -59.45634646436156 4.273941200949593e-11
  endloop
endfacet
facet normal -0.8038906030837363 -0.5947771837198085 4.5040920490171453e-13
  outer loop
    vertex -85.51532447161378 -59.45634646436156 20.000000000042746
    vertex -85.515324471625 -59.45634646436156 4.273941200949593e-11
    vertex -81.23371436659497 -65.24329697911841 20.000000000040355
  endloop
endfacet
facet normal -0.8038906030837372 -0.5947771837198073 4.5109109893372625e-13
  outer loop
    vertex -72.51945693847027 -77.0213373126751 3.5480818283417646e-11
    vertex -72.51945693845903 -77.0213373126751 20.000000000035488
    vertex -76.44548496927773 -71.71498540846979 3.7677572173322456e-11
  endloop
endfacet
facet normal -0.8038906030837372 -0.5947771837198073 4.5109109893372625e-13
  outer loop
    vertex -76.4454849692665 -71.71498540846979 20.00000000003768
    vertex -76.44548496927773 -71.71498540846979 3.7677572173322456e-11
    vertex -72.51945693845903 -77.0213373126751 20.000000000035488
  endloop
endfacet
facet normal -0.5947771837198076 0.803890603083737 3.334121952996905e-13
  outer loop
    vertex -76.4454849692665 -71.71498540846979 20.00000000003768
    vertex -72.42603195384781 -68.74109948987072 20.000000000035424
    vertex -76.44548496927773 -71.71498540846979 3.7677572173322456e-11
  endloop
endfacet
facet normal -0.5947771837198076 0.803890603083737 3.334121952996905e-13
  outer loop
    vertex -72.42603195385904 -68.74109948987072 3.5418779020801594e-11
    vertex -76.44548496927773 -71.71498540846979 3.7677572173322456e-11
    vertex -72.42603195384781 -68.74109948987072 20.000000000035424
  endloop
endfacet
facet normal 0.5947771837198088 -0.8038906030837359 -3.334121952996912e-13
  outer loop
    vertex -81.23371436659497 -65.24329697911841 20.000000000040355
    vertex -81.2337143666062 -65.24329697911841 4.0350900398777864e-11
    vertex -77.21426135117629 -62.26941106051938 20.000000000038103
  endloop
endfacet
facet normal 0.5947771837198088 -0.8038906030837359 -3.334121952996912e-13
  outer loop
    vertex -77.21426135118752 -62.26941106051938 3.810056714570464e-11
    vertex -77.21426135117629 -62.26941106051938 20.000000000038103
    vertex -81.2337143666062 -65.24329697911841 4.0350900398777864e-11
  endloop
endfacet
facet normal 0.6087614290087167 -0.7933533402912383 -3.412419585171402e-13
  outer loop
    vertex -77.21426135117629 -62.26941106051938 20.000000000038103
    vertex -77.21426135118752 -62.26941106051938 3.810056714570464e-11
    vertex -69.37583655995414 -56.25477617497133 20.00000000003372
  endloop
endfacet
facet normal 0.6087614290087167 -0.7933533402912383 -3.412419585171402e-13
  outer loop
    vertex -69.37583655996535 -56.25477617497133 3.3712699298860116e-11
    vertex -69.37583655995414 -56.25477617497133 20.00000000003372
    vertex -77.21426135118752 -62.26941106051938 3.810056714570464e-11
  endloop
endfacet
endsolid suportFilamentInverdit
